<?xml version="1.0" encoding="utf-8"?>
<svg width="1175px" height="1718px" viewBox="0 0 1175 1718" version="1.1" xmlns="http://www.w3.org/2000/svg" xmlns:xlink="http://www.w3.org/1999/xlink">
	<title>index 2</title>
	<desc>Created with Sketch.</desc>
	<defs></defs>
	<g id="Page-1" stroke="none" stroke-width="1" fill="none" fill-rule="evenodd">
		<g id="index" transform="translate(3.000000, 3.000000)">
			<g id="boxes" stroke="#000000" fill="#C7C8CA">
				<g id="32" transform="translate(451.000000, 1592.000000)">
					<g id="32C" transform="translate(2.000000, 76.000000)">
						<polygon id="16" points="195.9 38.2 235 37 233.7 0 194.8 1.1"></polygon>
						<polygon id="14" points="156.8 2.3 158 39.3 195.9 38.2 194.8 1.1"></polygon>
						<polygon id="11" points="115 3.5 116 40.6 158 39.3 156.8 2.3"></polygon>
						<polygon id="8" points="75.9 4.7 77 41.7 116 40.6 115 3.5"></polygon>
						<polygon id="6" points="38 5.9 39 42.9 77 41.7 75.9 4.7"></polygon>
						<polygon id="3" points="0 7 1 44 39 42.9 38 5.9"></polygon>
					</g>
					<g id="32B" transform="translate(1.000000, 40.000000)">
						<polygon id="18" points="195.8 37.1 234.7 36 233.4 0 194.7 0.8"></polygon>
						<polygon id="15" points="157.8 38.3 195.8 37.1 194.7 0.8 156.6 1.6"></polygon>
						<polygon id="12" points="115 2.5 116 39.5 157.8 38.3 156.6 1.6"></polygon>
						<polygon id="9" points="75.9 3.4 76.9 40.7 116 39.5 115 2.5"></polygon>
						<polygon id="6" points="37.9 4.2 39 41.9 76.9 40.7 75.9 3.4"></polygon>
						<polygon id="3" points="37.9 4.2 0.1 5 1 43 39 41.9"></polygon>
					</g>
					<g id="32A">
						<polygon id="16" points="195.7 40.8 234.4 40 233 0 194.5 0.7"></polygon>
						<polygon id="14" points="157.6 41.6 195.7 40.8 194.5 0.7 156.2 1.3"></polygon>
						<polygon id="11" points="116 42.5 157.6 41.6 156.2 1.3 114.9 2"></polygon>
						<polygon id="8" points="75.7 2.7 76.9 43.4 116 42.5 114.9 2"></polygon>
						<polygon id="5" points="75.7 2.7 37.8 3.4 38.9 44.2 76.9 43.4"></polygon>
						<polygon id="3" points="37.8 3.4 0 4 1.1 45 38.9 44.2"></polygon>
					</g>
				</g>
				<g id="33" transform="translate(448.000000, 1466.000000)">
					<g id="33C" transform="translate(2.000000, 75.000000)">
						<polygon id="53" points="718.7 0 692.3 0.7 693 40.6 719 40"></polygon>
						<polygon id="50" points="654.9 1.6 656 41.4 693 40.6 692.3 0.7"></polygon>
						<polygon id="47" points="615.1 2.6 616 42.3 656 41.4 654.9 1.6"></polygon>
						<polygon id="44" points="576.5 3.6 577 43.2 616 42.3 615.1 2.6"></polygon>
						<polygon id="42" points="536.9 4.6 538 44.1 577 43.2 576.5 3.6"></polygon>
						<polygon id="39" points="498.8 5.5 500 45 538 44.1 536.9 4.6"></polygon>
						<polygon id="36" points="461 6.5 462 45.8 500 45 498.8 5.5"></polygon>
						<polygon id="33" points="423 7.4 424 46.7 462 45.8 461 6.5"></polygon>
						<polygon id="31" points="384 8.4 385 47.6 424 46.7 423 7.4"></polygon>
						<polygon id="28" points="345.8 9.3 347 48.4 385 47.6 384 8.4"></polygon>
						<polygon id="25" points="306.8 10.3 308 49.3 347 48.4 345.8 9.3"></polygon>
						<polygon id="22" points="268.1 11.3 269 50.2 308 49.3 306.8 10.3"></polygon>
						<polygon id="20" points="232.8 12.2 234 51 269 50.2 268.1 11.3"></polygon>
						<polygon id="17" points="194.3 13.1 195.5 51.7 234 51 232.8 12.2"></polygon>
						<polygon id="14" points="157.2 52.3 195.5 51.7 194.3 13.1 156 14.1"></polygon>
						<polygon id="11" points="115.9 53 157.2 52.3 156 14.1 114.9 15.1"></polygon>
						<polygon id="8" points="114.9 15.1 75.6 16.1 76.7 53.7 115.9 53"></polygon>
						<polygon id="5" points="75.6 16.1 37.8 17.1 38.8 54.4 76.7 53.7"></polygon>
						<polygon id="3" points="37.8 17.1 0 18 1 55 38.8 54.4"></polygon>
					</g>
					<g id="33B" transform="translate(1.000000, 39.000000)">
						<polygon id="66" points="693.3 36.7 719.7 36 719.3 0 692.7 0.6"></polygon>
						<polygon id="62" points="654.9 1.4 655.9 37.6 693.3 36.7 692.7 0.6"></polygon>
						<polygon id="50" points="615.2 2.3 616.1 38.6 655.9 37.6 654.9 1.4"></polygon>
						<polygon id="44" points="577 3.2 577.5 39.6 616.1 38.6 615.2 2.3"></polygon>
						<polygon id="41" points="536.8 4.1 537.9 40.6 577.5 39.6 577 3.2"></polygon>
						<polygon id="38" points="498.7 4.9 499.8 41.5 537.9 40.6 536.8 4.1"></polygon>
						<polygon id="35" points="461 5.7 462 42.5 499.8 41.5 498.7 4.9"></polygon>
						<polygon id="33" points="423.1 6.6 424 43.4 462 42.5 461 5.7"></polygon>
						<polygon id="30" points="384.1 7.5 385 44.4 424 43.4 423.1 6.6"></polygon>
						<polygon id="27" points="345.6 8.3 346.8 45.3 385 44.4 384.1 7.5"></polygon>
						<polygon id="24" points="306.6 9.2 307.8 46.3 346.8 45.3 345.6 8.3"></polygon>
						<polygon id="22" points="268.2 10 269.1 47.3 307.8 46.3 306.6 9.2"></polygon>
						<polygon id="19" points="232.7 10.8 233.8 48.2 269.1 47.3 268.2 10"></polygon>
						<polygon id="16" points="194.1 11.7 195.3 49.1 233.8 48.2 232.7 10.8"></polygon>
						<polygon id="13" points="155.8 12.5 157 50.1 195.3 49.1 194.1 11.7"></polygon>
						<polygon id="10" points="115.9 51.1 157 50.1 155.8 12.5 114.9 13.4"></polygon>
						<polygon id="8" points="114.9 13.4 75.6 14.3 76.6 52.1 115.9 51.1"></polygon>
						<polygon id="5" points="75.6 14.3 37.8 15.2 38.8 53.1 76.6 52.1"></polygon>
						<polygon id="3" points="37.8 15.2 0 16 1 54 38.8 53.1"></polygon>
					</g>
					<g id="33A">
						<polygon id="53" points="693.7 39.6 720.3 39 720 0 693 0.6"></polygon>
						<polygon id="51" points="655.9 40.4 693.7 39.6 693 0.6 654.8 1.4"></polygon>
						<polygon id="48" points="615.3 2.2 616.2 41.3 655.9 40.4 654.8 1.4"></polygon>
						<polygon id="45" points="577.4 3 578 42.2 616.2 41.3 615.3 2.2"></polygon>
						<polygon id="43" points="536.7 3.8 537.8 43.1 578 42.2 577.4 3"></polygon>
						<polygon id="40" points="498.5 4.6 499.7 43.9 537.8 43.1 536.7 3.8"></polygon>
						<polygon id="37" points="461 5.4 462 44.7 499.7 43.9 498.5 4.6"></polygon>
						<polygon id="35" points="423.1 6.2 424.1 45.6 462 44.7 461 5.4"></polygon>
						<polygon id="32" points="384.2 7 385.1 46.5 424.1 45.6 423.1 6.2"></polygon>
						<polygon id="29" points="345.4 7.8 346.6 47.3 385.1 46.5 384.2 7"></polygon>
						<polygon id="26" points="306.3 8.6 307.6 48.2 346.6 47.3 345.4 7.8"></polygon>
						<polygon id="24" points="268.2 9.4 269.2 49 307.6 48.2 306.3 8.6"></polygon>
						<polygon id="21" points="232.5 10.2 233.7 49.8 269.2 49 268.2 9.4"></polygon>
						<polygon id="18" points="193.9 11 195.1 50.7 233.7 49.8 232.5 10.2"></polygon>
						<polygon id="15" points="155.5 11.8 156.8 51.5 195.1 50.7 193.9 11"></polygon>
						<polygon id="13" points="114.8 12.6 115.9 52.4 156.8 51.5 155.5 11.8"></polygon>
						<polygon id="10" points="114.8 12.6 75.4 13.4 76.6 53.3 115.9 52.4"></polygon>
						<polygon id="6" points="75.4 13.4 37.7 14.2 38.8 54.2 76.6 53.3"></polygon>
						<polygon id="3" points="37.7 14.2 0 15 1 55 38.8 54.2"></polygon>
					</g>
				</g>
				<g id="34" transform="translate(445.000000, 1352.000000)">
					<g id="34C" transform="translate(2.000000, 76.000000)">
						<polygon id="54" points="694 38.6 721 38 720.7 0 693.3 0.6"></polygon>
						<polygon id="51" points="655.8 39.4 694 38.6 693.3 0.6 654.7 1.5"></polygon>
						<polygon id="49" points="616.3 40.2 655.8 39.4 654.7 1.5 615.4 2.3"></polygon>
						<polygon id="46" points="577.9 3.2 578.4 41 616.3 40.2 615.4 2.3"></polygon>
						<polygon id="43" points="536.6 4.1 537.7 41.8 578.4 41 577.9 3.2"></polygon>
						<polygon id="39" points="498.4 4.9 499.5 42.6 537.7 41.8 536.6 4.1"></polygon>
						<polygon id="37" points="461 5.8 462 43.4 499.5 42.6 498.4 4.9"></polygon>
						<polygon id="34" points="423.1 6.6 424.1 44.2 462 43.4 461 5.8"></polygon>
						<polygon id="31" points="384.2 7.5 385.2 45 424.1 44.2 423.1 6.6"></polygon>
						<polygon id="28" points="345.2 8.3 346.4 45.8 385.2 45 384.2 7.5"></polygon>
						<polygon id="26" points="306.2 9.2 307.3 46.6 346.4 45.8 345.2 8.3"></polygon>
						<polygon id="23" points="268.3 10 269.2 47.4 307.3 46.6 306.2 9.2"></polygon>
						<polygon id="20" points="232.3 10.8 233.5 48.2 269.2 47.4 268.3 10"></polygon>
						<polygon id="17" points="193.8 11.7 194.9 49 233.5 48.2 232.3 10.8"></polygon>
						<polygon id="14" points="155.2 12.5 156.5 49.8 194.9 49 193.8 11.7"></polygon>
						<polygon id="12" points="114.8 13.4 115.8 50.6 156.5 49.8 155.2 12.5"></polygon>
						<polygon id="9" points="114.8 13.4 75.4 14.3 76.4 51.4 115.8 50.6"></polygon>
						<polygon id="6" points="75.4 14.3 37.6 15.1 38.7 52.2 76.4 51.4"></polygon>
						<polygon id="4" points="37.6 15.1 0 16 1 53 38.7 52.2"></polygon>
					</g>
					<g id="34B" transform="translate(1.000000, 38.000000)">
						<polygon id="52" points="694.3 38.6 721.7 38 721.4 0 693.7 0.6"></polygon>
						<polygon id="50" points="655.7 39.5 694.3 38.6 693.7 0.6 654.7 1.5"></polygon>
						<polygon id="47" points="616.4 40.3 655.7 39.5 654.7 1.5 615.5 2.4"></polygon>
						<polygon id="44" points="578.9 41.2 616.4 40.3 615.5 2.4 578.4 3.2"></polygon>
						<polygon id="41" points="536.5 4.1 537.6 42.1 578.9 41.2 578.4 3.2"></polygon>
						<polygon id="38" points="498.2 5 499.4 42.9 537.6 42.1 536.5 4.1"></polygon>
						<polygon id="35" points="461.1 5.8 462 43.8 499.4 42.9 498.2 5"></polygon>
						<polygon id="33" points="423.2 6.6 424.1 44.6 462 43.8 461.1 5.8"></polygon>
						<polygon id="30" points="384.3 7.5 385.2 45.5 424.1 44.6 423.2 6.6"></polygon>
						<polygon id="27" points="345.1 8.3 346.2 46.3 385.2 45.5 384.3 7.5"></polygon>
						<polygon id="24" points="306 9.2 307.2 47.2 346.2 46.3 345.1 8.3"></polygon>
						<polygon id="21" points="268.4 10 269.3 48 307.2 47.2 306 9.2"></polygon>
						<polygon id="18" points="232.2 10.9 233.3 48.8 269.3 48 268.4 10"></polygon>
						<polygon id="16" points="193.6 11.7 194.8 49.7 233.3 48.8 232.2 10.9"></polygon>
						<polygon id="13" points="155 12.6 156.2 50.5 194.8 49.7 193.6 11.7"></polygon>
						<polygon id="10" points="155 12.6 114.8 13.5 115.8 51.4 156.2 50.5"></polygon>
						<polygon id="8" points="114.8 13.5 75.3 14.3 76.4 52.3 115.8 51.4"></polygon>
						<polygon id="5" points="75.3 14.3 37.6 15.2 38.6 53.1 76.4 52.3"></polygon>
						<polygon id="3" points="37.6 15.2 0.1 16 1 54 38.6 53.1"></polygon>
					</g>
					<g id="34A">
						<polygon id="54" points="722.4 38 722 0 694 0.6 694.7 38.6"></polygon>
						<polygon id="51" points="694.7 38.6 694 0.6 654.6 1.3 655.7 39.5"></polygon>
						<polygon id="48" points="655.7 39.5 654.6 1.3 615.6 2.1 616.5 40.4"></polygon>
						<polygon id="46" points="616.5 40.4 615.6 2.1 578.9 2.8 579.4 41.2"></polygon>
						<polygon id="43" points="579.4 41.2 578.9 2.8 536.3 3.6 537.5 42.1"></polygon>
						<polygon id="40" points="537.5 42.1 536.3 3.6 498.1 4.3 499.2 43"></polygon>
						<polygon id="37" points="499.2 43 498.1 4.3 461.1 5.1 462.1 43.8"></polygon>
						<polygon id="34" points="462.1 43.8 461.1 5.1 423.2 5.8 424.2 44.6"></polygon>
						<polygon id="31" points="424.2 44.6 423.2 5.8 384.3 6.6 385.3 45.5"></polygon>
						<polygon id="28" points="385.3 45.5 384.3 6.6 344.8 7.3 346.1 46.3"></polygon>
						<polygon id="26" points="346.1 46.3 344.8 7.3 305.7 8.1 307 47.2"></polygon>
						<polygon id="23" points="307 47.2 305.7 8.1 268.4 8.8 269.4 48"></polygon>
						<polygon id="20" points="269.4 48 268.4 8.8 232 9.5 233.2 48.9"></polygon>
						<polygon id="17" points="233.2 48.9 232 9.5 193.4 10.3 194.6 49.7"></polygon>
						<polygon id="14" points="194.6 49.7 193.4 10.3 154.7 11 156 50.6"></polygon>
						<polygon id="12" points="156 50.6 154.7 11 114.7 11.8 115.8 51.5"></polygon>
						<polygon id="9" points="115.8 51.5 114.7 11.8 75.2 12.5 76.3 52.3"></polygon>
						<polygon id="6" points="76.3 52.3 75.2 12.5 37.5 13.3 38.6 53.2"></polygon>
						<polygon id="3" points="38.6 53.2 37.5 13.3 0 14 1.1 54"></polygon>
					</g>
				</g>
				<g id="35" transform="translate(442.000000, 1238.000000)">
					<g id="35C" transform="translate(2.000000, 77.000000)">
						<polygon id="52" points="695 37.6 723 37 722.7 0 694.4 0.5"></polygon>
						<polygon id="50" points="655.6 38.3 695 37.6 694.4 0.5 654.6 1.1"></polygon>
						<polygon id="47" points="616.6 39.1 655.6 38.3 654.6 1.1 615.7 1.8"></polygon>
						<polygon id="44" points="579.9 39.8 616.6 39.1 615.7 1.8 579.4 2.4"></polygon>
						<polygon id="41" points="537.3 40.6 579.9 39.8 579.4 2.4 536.2 3.1"></polygon>
						<polygon id="39" points="499.1 41.3 537.3 40.6 536.2 3.1 497.9 3.7"></polygon>
						<polygon id="36" points="461.1 4.3 462.1 42.1 499.1 41.3 497.9 3.7"></polygon>
						<polygon id="33" points="423.3 5 424.2 42.8 462.1 42.1 461.1 4.3"></polygon>
						<polygon id="30" points="384.4 5.6 385.3 43.6 424.2 42.8 423.3 5"></polygon>
						<polygon id="27" points="344.7 6.3 345.8 44.3 385.3 43.6 384.4 5.6"></polygon>
						<polygon id="25" points="305.5 6.9 306.7 45.1 345.8 44.3 344.7 6.3"></polygon>
						<polygon id="22" points="268.5 7.5 269.4 45.8 306.7 45.1 305.5 6.9"></polygon>
						<polygon id="29" points="231.8 8.1 233 46.5 269.4 45.8 268.5 7.5"></polygon>
						<polygon id="16" points="231.8 8.1 193.2 8.8 194.4 47.3 233 46.5"></polygon>
						<polygon id="13" points="193.2 8.8 154.5 9.4 155.7 48 194.4 47.3"></polygon>
						<polygon id="11" points="154.5 9.4 114.7 10.1 115.7 48.8 155.7 48"></polygon>
						<polygon id="8" points="114.7 10.1 75.1 10.8 76.2 49.5 115.7 48.8"></polygon>
						<polygon id="5" points="75.1 10.8 37.4 11.4 38.5 50.3 76.2 49.5"></polygon>
						<polygon id="2" points="37.4 11.4 0 12 1 51 38.5 50.3"></polygon>
					</g>
					<g id="35B" transform="translate(1.000000, 38.000000)">
						<polygon id="54" points="695.4 39.5 723.7 39 723.4 0 694.7 0.6"></polygon>
						<polygon id="51" points="655.6 40.1 695.4 39.5 694.7 0.6 654.5 1.4"></polygon>
						<polygon id="48" points="616.7 40.8 655.6 40.1 654.5 1.4 615.8 2.2"></polygon>
						<polygon id="45" points="580.4 41.4 616.7 40.8 615.8 2.2 579.8 3"></polygon>
						<polygon id="43" points="537.2 42.1 580.4 41.4 579.8 3 536.1 3.9"></polygon>
						<polygon id="40" points="498.9 42.7 537.2 42.1 536.1 3.9 497.8 4.7"></polygon>
						<polygon id="37" points="462.1 43.3 498.9 42.7 497.8 4.7 461.1 5.5"></polygon>
						<polygon id="34" points="423.3 6.2 424.3 44 462.1 43.3 461.1 5.5"></polygon>
						<polygon id="31" points="384.4 7 385.4 44.6 424.3 44 423.3 6.2"></polygon>
						<polygon id="28" points="344.5 7.9 345.7 45.3 385.4 44.6 384.4 7"></polygon>
						<polygon id="25" points="305.3 8.7 306.5 45.9 345.7 45.3 344.5 7.9"></polygon>
						<polygon id="23" points="268.6 9.5 269.5 46.5 306.5 45.9 305.3 8.7"></polygon>
						<polygon id="20" points="268.6 9.5 231.7 10.2 232.8 47.1 269.5 46.5"></polygon>
						<polygon id="17" points="231.7 10.2 193.1 11 194.2 47.8 232.8 47.1"></polygon>
						<polygon id="14" points="193.1 11 154.3 11.8 155.5 48.4 194.2 47.8"></polygon>
						<polygon id="12" points="154.3 11.8 114.7 12.6 115.7 49.1 155.5 48.4"></polygon>
						<polygon id="9" points="114.7 12.6 75 13.5 76.1 49.8 115.7 49.1"></polygon>
						<polygon id="6" points="75 13.5 37.5 14.2 38.4 50.4 76.1 49.8"></polygon>
						<polygon id="3" points="37.5 14.2 0.1 15 1 51 38.4 50.4"></polygon>
					</g>
					<g id="35A">
						<polygon id="53" points="695.7 38.6 724.4 38 724 1 695.1 1.5"></polygon>
						<polygon id="50" points="655.5 39.4 695.7 38.6 695.1 1.5 654.5 2.2"></polygon>
						<polygon id="48" points="616.8 40.2 655.5 39.4 654.5 2.2 616 2.9"></polygon>
						<polygon id="45" points="580.8 41 616.8 40.2 616 2.9 580.3 3.6"></polygon>
						<polygon id="42" points="537.1 41.9 580.8 41 580.3 3.6 536 4.4"></polygon>
						<polygon id="39" points="498.8 42.7 537.1 41.9 536 4.4 497.7 5"></polygon>
						<polygon id="36" points="485 0 461 0.7 462.1 43.5 498.8 42.7 497.7 5 481.7 5.3"></polygon>
						<polygon id="33" points="424.3 44.2 462.1 43.5 461 0.7 423.3 1.9"></polygon>
						<polygon id="30" points="384.4 3.1 385.4 45 424.3 44.2 423.3 1.9"></polygon>
						<polygon id="27" points="344.2 4.4 345.5 45.9 385.4 45 384.4 3.1"></polygon>
						<polygon id="25" points="305 5.6 306.3 46.7 345.5 45.9 344.2 4.4"></polygon>
						<polygon id="22" points="305 5.6 268.6 6.7 269.6 47.5 306.3 46.7"></polygon>
						<polygon id="19" points="268.6 6.7 231.4 7.9 232.7 48.2 269.6 47.5"></polygon>
						<polygon id="16" points="231.4 7.9 192.8 9.1 194.1 49 232.7 48.2"></polygon>
						<polygon id="14" points="192.8 9.1 154 10.3 155.3 49.8 194.1 49"></polygon>
						<polygon id="11" points="154 10.3 114.6 11.5 115.7 50.6 155.3 49.8"></polygon>
						<polygon id="8" points="114.6 11.5 74.9 12.7 76 51.5 115.7 50.6"></polygon>
						<polygon id="5" points="74.9 12.7 37.4 13.9 38.5 52.2 76 51.5"></polygon>
						<polygon id="3" points="37.4 13.9 0.1 15 1.1 53 38.5 52.2"></polygon>
					</g>
				</g>
				<g id="36" transform="translate(439.000000, 1118.000000)">
					<g id="36C" transform="translate(2.000000, 82.000000)">
						<polygon id="53" points="696.1 39.5 725 39 724.7 3 695.5 3.1"></polygon>
						<polygon id="51" points="655.5 40.2 696.1 39.5 695.5 3.1 654.5 3.3"></polygon>
						<polygon id="48" points="617 40.9 655.5 40.2 654.5 3.3 616.1 3.5"></polygon>
						<polygon id="45" points="581.3 41.6 617 40.9 616.1 3.5 580.8 3.7"></polygon>
						<polygon id="42" points="537 42.4 581.3 41.6 580.8 3.7 535.9 3.9"></polygon>
						<polygon id="39" points="525 0 497.4 0.7 498.7 43 537 42.4 535.9 3.9 520.7 4"></polygon>
						<polygon id="37" points="462 38.7 486 38 482.7 43.3 498.7 43 497.4 0.7 461 1.6"></polygon>
						<polygon id="34" points="462 38.7 461 1.6 423.3 2.5 424.3 39.9"></polygon>
						<polygon id="31" points="385.4 41.1 424.3 39.9 423.3 2.5 384.5 3.5"></polygon>
						<polygon id="28" points="345.2 42.4 385.4 41.1 384.5 3.5 344 4.5"></polygon>
						<polygon id="26" points="344 4.5 304.8 5.5 306 43.6 345.2 42.4"></polygon>
						<polygon id="23" points="304.8 5.5 268.7 6.3 269.6 44.7 306 43.6"></polygon>
						<polygon id="20" points="268.7 6.3 231.3 7.3 232.4 45.9 269.6 44.7"></polygon>
						<polygon id="17" points="231.3 7.3 192.6 8.2 193.8 47.1 232.4 45.9"></polygon>
						<polygon id="15" points="192.6 8.2 153.7 9.2 155 48.3 193.8 47.1"></polygon>
						<polygon id="12" points="153.7 9.2 114.6 10.2 115.6 49.5 155 48.3"></polygon>
						<polygon id="9" points="114.6 10.2 74.8 11.1 75.9 50.7 115.6 49.5"></polygon>
						<polygon id="6" points="74.8 11.1 37.3 12.1 38.4 51.9 75.9 50.7"></polygon>
						<polygon id="3" points="37.3 12.1 0 13 1.1 53 38.4 51.9"></polygon>
					</g>
					<g id="36B" transform="translate(1.000000, 39.000000)">
						<polygon id="53" points="696.5 46.1 725.7 46 725.4 3 695.7 3.4"></polygon>
						<polygon id="50" points="655.5 46.3 696.5 46.1 695.7 3.4 654.3 3.9"></polygon>
						<polygon id="47" points="617.1 46.5 655.5 46.3 654.3 3.9 616.1 4.3"></polygon>
						<polygon id="44" points="581.8 46.7 617.1 46.5 616.1 4.3 581.2 4.8"></polygon>
						<polygon id="41" points="567 0 535.6 1.1 536.9 46.9 581.8 46.7 581.2 4.8 563 5"></polygon>
						<polygon id="39" points="498.4 43.7 526 43 521.7 47 536.9 46.9 535.6 1.1 497.1 2.5"></polygon>
						<polygon id="36" points="498.4 43.7 497.1 2.5 461 3.7 462 44.6"></polygon>
						<polygon id="33" points="424.3 45.5 462 44.6 461 3.7 423.3 5.1"></polygon>
						<polygon id="30" points="385.5 46.5 424.3 45.5 423.3 5.1 384.5 6.4"></polygon>
						<polygon id="27" points="385.5 46.5 384.5 6.4 343.8 7.9 345 47.5"></polygon>
						<polygon id="25" points="343.8 7.9 304.6 9.3 305.8 48.5 345 47.5"></polygon>
						<polygon id="22" points="304.6 9.3 268.8 10.5 269.7 49.3 305.8 48.5"></polygon>
						<polygon id="19" points="268.8 10.5 231.1 11.9 232.3 50.3 269.7 49.3"></polygon>
						<polygon id="16" points="231.1 11.9 192.5 13.2 193.6 51.2 232.3 50.3"></polygon>
						<polygon id="13" points="192.5 13.2 153.4 14.6 154.7 52.2 193.6 51.2"></polygon>
						<polygon id="11" points="153.4 14.6 114.6 16 115.6 53.2 154.7 52.2"></polygon>
						<polygon id="8" points="114.6 16 74.8 17.4 75.8 54.1 115.6 53.2"></polygon>
						<polygon id="5" points="74.8 17.4 37.3 18.7 38.3 55.1 75.8 54.1"></polygon>
						<polygon id="2" points="37.3 18.7 0.1 20 1 56 38.3 55.1"></polygon>
					</g>
					<g id="36A">
						<polygon id="56" points="696.7 42.4 726.4 42 726 5 696.1 5.1"></polygon>
						<polygon id="53" points="655.3 42.9 696.7 42.4 696.1 5.1 654.2 5.2"></polygon>
						<polygon id="50" points="617.1 43.3 655.3 42.9 654.2 5.2 616.2 5.3"></polygon>
						<polygon id="47" points="607 0.5 575.3 1.5 576 32.5 582 27.3 582.2 43.8 617.1 43.3 616.2 5.3 603.3 5.3"></polygon>
						<polygon id="44" points="536.6 40.1 568 39 564 44 582.2 43.8 582 27.3 576 32.5 575.3 1.5 535.5 2.8"></polygon>
						<polygon id="41" points="536.6 40.1 535.5 2.8 497 4 498.1 41.5"></polygon>
						<polygon id="38" points="462 42.7 498.1 41.5 497 4 461 5.2"></polygon>
						<polygon id="35" points="424.3 44.1 462 42.7 461 5.2 423.4 6.4"></polygon>
						<polygon id="32" points="424.3 44.1 423.4 6.4 384.5 7.6 385.5 45.4"></polygon>
						<polygon id="29" points="344.8 46.9 385.5 45.4 384.5 7.6 343.6 9"></polygon>
						<polygon id="26" points="343.6 9 304.4 10.2 305.6 48.3 344.8 46.9"></polygon>
						<polygon id="23" points="304.4 10.2 268.8 11.4 269.8 49.5 305.6 48.3"></polygon>
						<polygon id="21" points="268.8 11.4 230.9 12.6 232.1 50.9 269.8 49.5"></polygon>
						<polygon id="18" points="230.9 12.6 192.3 13.8 193.5 52.2 232.1 50.9"></polygon>
						<polygon id="15" points="192.3 13.8 153.2 15.1 154.4 53.6 193.5 52.2"></polygon>
						<polygon id="12" points="153.2 15.1 114.5 16.3 115.6 55 154.4 53.6"></polygon>
						<polygon id="9" points="114.5 16.3 74.7 17.6 75.8 56.4 115.6 55"></polygon>
						<polygon id="6" points="74.7 17.6 37.2 18.8 38.3 57.7 75.8 56.4"></polygon>
						<polygon id="4" points="37.2 18.8 0.1 20 1.1 59 38.3 57.7"></polygon>
					</g>
				</g>
				<g id="37" transform="translate(436.000000, 1000.000000)">
					<g id="37C" transform="translate(2.000000, 78.000000)">
						<polygon id="54" points="697.1 45.1 727 45 726.7 6 696.4 6"></polygon>
						<polygon id="51" points="655.2 45.2 697.1 45.1 696.4 6 654.1 6"></polygon>
						<polygon id="48" points="648 0 613 1.1 613.5 35 616.9 31 617.2 45.3 655.2 45.2 654.1 6 643 6"></polygon>
						<polygon id="45" points="576.3 41.5 608 40.5 604.3 45.3 617.2 45.3 616.9 31 613.5 35 613 1.1 575.4 2.2"></polygon>
						<polygon id="42" points="576.3 41.5 575.4 2.2 535.4 3.5 536.5 42.8"></polygon>
						<polygon id="39" points="498 44 536.5 42.8 535.4 3.5 496.8 4.7"></polygon>
						<polygon id="36" points="462 45.2 498 44 496.8 4.7 461 5.8"></polygon>
						<polygon id="33" points="462 45.2 461 5.8 423.4 6.9 424.4 46.4"></polygon>
						<polygon id="31" points="385.5 47.6 424.4 46.4 423.4 6.9 384.6 8.1"></polygon>
						<polygon id="28" points="344.6 49 385.5 47.6 384.6 8.1 343.4 9.4"></polygon>
						<polygon id="25" points="343.4 9.4 304.1 10.6 305.4 50.2 344.6 49"></polygon>
						<polygon id="22" points="304.1 10.6 268.9 11.7 269.8 51.4 305.4 50.2"></polygon>
						<polygon id="20" points="268.9 11.7 230.7 12.9 231.9 52.6 269.8 51.4"></polygon>
						<polygon id="17" points="230.7 12.9 192.1 14.1 193.3 53.8 231.9 52.6"></polygon>
						<polygon id="14" points="192.1 14.1 152.9 15.3 154.2 55.1 193.3 53.8"></polygon>
						<polygon id="11" points="152.9 15.3 114.5 16.5 115.5 56.3 154.2 55.1"></polygon>
						<polygon id="8" points="114.5 16.5 74.6 17.7 75.7 57.6 115.5 56.3"></polygon>
						<polygon id="5" points="74.6 17.7 37.1 18.9 38.2 58.8 75.7 57.6"></polygon>
						<polygon id="3" points="37.1 18.9 0.1 20 1.1 60 38.2 58.8"></polygon>
					</g>
					<g id="37B" transform="translate(1.000000, 38.000000)">
						<polygon id="54" points="697.4 46 727.7 46 727.4 9 696.8 9.6"></polygon>
						<polygon id="51" points="654.8 33 655.1 46 697.4 46 696.8 9.6 680 10 689.6 0 653.9 1.1"></polygon>
						<polygon id="48" points="614 41.1 649 40 644 46 655.1 46 654.8 33 653.9 1.1 613.4 2.3"></polygon>
						<polygon id="45" points="614 41.1 613.4 2.3 575.5 3.5 576.4 42.2"></polygon>
						<polygon id="42" points="536.4 43.5 576.4 42.2 575.5 3.5 535.2 4.7"></polygon>
						<polygon id="39" points="497.8 44.7 536.4 43.5 535.2 4.7 496.7 5.9"></polygon>
						<polygon id="36" points="497.8 44.7 496.7 5.9 461 6.9 462 45.8"></polygon>
						<polygon id="34" points="424.4 46.9 462 45.8 461 6.9 423.4 8.1"></polygon>
						<polygon id="30" points="385.6 48.1 424.4 46.9 423.4 8.1 384.6 9.3"></polygon>
						<polygon id="28" points="344.4 49.4 385.6 48.1 384.6 9.3 343.2 10.5"></polygon>
						<polygon id="25" points="343.2 10.5 303.9 11.7 305.1 50.6 344.4 49.4"></polygon>
						<polygon id="23" points="303.9 11.7 268.9 12.8 269.9 51.7 305.1 50.6"></polygon>
						<polygon id="20" points="268.9 12.8 230.5 14 231.7 52.9 269.9 51.7"></polygon>
						<polygon id="17" points="230.5 14 191.9 15.2 193.1 54.1 231.7 52.9"></polygon>
						<polygon id="14" points="191.9 15.2 152.6 16.3 153.9 55.3 193.1 54.1"></polygon>
						<polygon id="12" points="152.6 16.3 114.4 17.5 115.5 56.5 153.9 55.3"></polygon>
						<polygon id="9" points="114.4 17.5 74.5 18.7 75.6 57.7 115.5 56.5"></polygon>
						<polygon id="6" points="74.5 18.7 37.1 19.9 38.1 58.9 75.6 57.7"></polygon>
						<polygon id="3" points="37.1 19.9 0 21 1.1 60 38.1 58.9"></polygon>
					</g>
					<g id="37A">
						<polygon id="49" points="690.6 38 697.5 30.5 697.8 47.6 728.4 47 728 0 689.5 1"></polygon>
						<polygon id="46" points="654.9 39.1 653.9 1.9 613.8 3 614.4 40.3"></polygon>
						<polygon id="43" points="576.5 41.5 614.4 40.3 613.8 3 575.7 4"></polygon>
						<polygon id="40" points="536.2 42.7 576.5 41.5 575.7 4 535.1 5"></polygon>
						<polygon id="38" points="536.2 42.7 535.1 5 496.5 6 497.7 43.9"></polygon>
						<polygon id="38" points="462 44.9 497.7 43.9 496.5 6 461 7"></polygon>
						<polygon id="35" points="424.4 46.1 462 44.9 461 7 423.4 7.9"></polygon>
						<polygon id="32" points="385.6 47.3 424.4 46.1 423.4 7.9 384.7 9"></polygon>
						<polygon id="29" points="344.2 48.5 385.6 47.3 384.7 9 343 10"></polygon>
						<polygon id="26" points="343 10 303.7 11.1 304.9 49.7 344.2 48.5"></polygon>
						<polygon id="24" points="303.7 11.1 269 12 269.9 50.8 304.9 49.7"></polygon>
						<polygon id="21" points="269 12 230.3 13 231.5 52 269.9 50.8"></polygon>
						<polygon id="18" points="230.3 13 191.7 14 192.9 53.2 231.5 52"></polygon>
						<polygon id="15" points="191.7 14 152.3 15 153.6 54.3 192.9 53.2"></polygon>
						<polygon id="12" points="152.3 15 114.4 16 115.4 55.5 153.6 54.3"></polygon>
						<polygon id="9" points="114.4 16 74.3 17.1 75.5 56.7 115.4 55.5"></polygon>
						<polygon id="6" points="74.3 17.1 37 18 38.1 57.9 75.5 56.7"></polygon>
						<polygon id="4" points="37 18 0 19 1 59 38.1 57.9"></polygon>
						<g id="Group" transform="translate(653.000000, 1.000000)">
							<polygon id="Shape" points="0.9 0.9 1.9 38.1 37.6 37 36.5 0"></polygon>
							<polygon id="Shape" points="44.8 46.6 44.5 29.5 37.6 37 28 47"></polygon>
						</g>
					</g>
				</g>
				<g id="38" transform="translate(97.000000, 885.000000)">
					<g id="38C" transform="translate(0.000000, 77.000000)">
						<polygon id="77" points="1028.5 39 1067 38 1046.7 0.6 1027.4 1.1"></polygon>
						<polygon id="75" points="1028.5 39 1027.4 1.1 991.8 1.9 992.9 39.9"></polygon>
						<polygon id="72" points="952.8 41 992.9 39.9 991.8 1.9 952.2 2.9"></polygon>
						<polygon id="69" points="914.7 42 952.8 41 952.2 2.9 913.8 3.8"></polygon>
						<polygon id="66" points="914.7 42 913.8 3.8 873 4.8 874.1 43"></polygon>
						<polygon id="63" points="835.5 44 874.1 43 873 4.8 834.4 5.8"></polygon>
						<polygon id="60" points="800 45 835.5 44 834.4 5.8 799 6.6"></polygon>
						<polygon id="58" points="762.4 45.9 800 45 799 6.6 761.5 7.5"></polygon>
						<polygon id="55" points="723.7 47 762.4 45.9 761.5 7.5 722.7 8.5"></polygon>
						<polygon id="52" points="723.7 47 722.7 8.5 681.5 9.5 682 48"></polygon>
						<polygon id="49" points="642.7 49.1 682 48 681.5 9.5 642.4 10.4"></polygon>
						<polygon id="46" points="642.4 10.4 607.6 11.3 608 50 642.7 49.1"></polygon>
						<polygon id="44" points="607.6 11.3 569.5 12.2 569.3 51 608 50"></polygon>
						<polygon id="41" points="569.5 12.2 530.7 13.1 530.7 52 569.3 51"></polygon>
						<polygon id="38" points="530.7 13.1 491.4 14.1 491.3 53 530.7 52"></polygon>
						<polygon id="35" points="491.4 14.1 453.8 15 453.4 54 491.3 53"></polygon>
						<polygon id="33" points="453.8 15 413.7 16 413.3 55.1 453.4 54"></polygon>
						<polygon id="30" points="413.7 16 376.2 16.9 376 56 413.3 55.1"></polygon>
						<polygon id="27" points="376.2 16.9 339.1 17.8 339 57 376 56"></polygon>
						<polygon id="24" points="302.4 18.7 303 57.8 339 57 339.1 17.8"></polygon>
						<polygon id="22" points="262.8 19.6 263 58.8 303 57.8 302.4 18.7"></polygon>
						<polygon id="19" points="226.9 20.5 227 59.6 263 58.8 262.8 19.6"></polygon>
						<polygon id="16" points="187.9 21.4 188 60.6 227 59.6 226.9 20.5"></polygon>
						<polygon id="13" points="150.8 22.3 151 61.4 188 60.6 187.9 21.4"></polygon>
						<polygon id="11" points="114.2 23.2 114 62.3 151 61.4 150.8 22.3"></polygon>
						<polygon id="8" points="75.3 24.2 75 63.2 114 62.3 114.2 23.2"></polygon>
						<polygon id="5" points="37.2 25.1 37 64.1 75 63.2 75.3 24.2"></polygon>
						<polygon id="3" points="0.4 26 0 65 37 64.1 37.2 25.1"></polygon>
					</g>
					<g id="38B" transform="translate(0.000000, 39.000000)">
						<polygon id="77" points="1046.7 38.6 1026.2 0.9 1027.4 39.1"></polygon>
						<polygon id="76" points="991.8 39.9 1027.4 39.1 1026.2 0.9 990.7 1.8"></polygon>
						<polygon id="73" points="952.2 40.9 991.8 39.9 990.7 1.8 951.7 2.8"></polygon>
						<polygon id="70" points="952.2 40.9 951.7 2.8 912.9 3.9 913.8 41.8"></polygon>
						<polygon id="67" points="873 42.8 913.8 41.8 912.9 3.9 871.9 5"></polygon>
						<polygon id="64" points="834.4 43.8 873 42.8 871.9 5 833.2 6"></polygon>
						<polygon id="61" points="799 44.6 834.4 43.8 833.2 6 798.1 6.9"></polygon>
						<polygon id="58" points="761.5 45.5 799 44.6 798.1 6.9 760.5 7.9"></polygon>
						<polygon id="56" points="761.5 45.5 760.5 7.9 721.8 8.9 722.7 46.5"></polygon>
						<polygon id="53" points="681.5 47.5 722.7 46.5 721.8 8.9 681.1 10"></polygon>
						<polygon id="50" points="642.4 48.4 681.5 47.5 681.1 10 642.1 11"></polygon>
						<polygon id="47" points="642.1 11 607.2 12 607.6 49.3 642.4 48.4"></polygon>
						<polygon id="44" points="607.2 12 569.6 13 569.5 50.2 607.6 49.3"></polygon>
						<polygon id="42" points="569.6 13 530.7 14 530.7 51.1 569.5 50.2"></polygon>
						<polygon id="39" points="530.7 14 491.6 15 491.4 52.1 530.7 51.1"></polygon>
						<polygon id="36" points="491.6 15 454.1 16 453.8 53 491.4 52.1"></polygon>
						<polygon id="33" points="454.1 16 414 17.1 413.7 54 453.8 53"></polygon>
						<polygon id="30" points="414 17.1 376.3 18.1 376.2 54.9 413.7 54"></polygon>
						<polygon id="28" points="339.3 19 339.1 55.8 376.2 54.9 376.3 18.1"></polygon>
						<polygon id="25" points="301.9 20 302.4 56.7 339.1 55.8 339.3 19"></polygon>
						<polygon id="22" points="262.6 21.1 262.8 57.6 302.4 56.7 301.9 20"></polygon>
						<polygon id="19" points="226.8 22 226.9 58.5 262.8 57.6 262.6 21.1"></polygon>
						<polygon id="17" points="187.8 23.1 187.9 59.4 226.9 58.5 226.8 22"></polygon>
						<polygon id="14" points="150.6 24 150.8 60.3 187.9 59.4 187.8 23.1"></polygon>
						<polygon id="11" points="114.4 25 114.2 61.2 150.8 60.3 150.6 24"></polygon>
						<polygon id="9" points="75.6 26 75.3 62.2 114.2 61.2 114.4 25"></polygon>
						<polygon id="6" points="37.5 27 37.2 63.1 75.3 62.2 75.6 26"></polygon>
						<polygon id="3" points="37.5 27 0.8 28 0.4 64 37.2 63.1"></polygon>
					</g>
					<g id="38A">
						<polygon id="74" points="990.7 40.8 1026.2 39.9 1005.1 0.9 989.6 1.3"></polygon>
						<polygon id="71" points="990.7 40.8 989.6 1.3 951.1 2.2 951.7 41.8"></polygon>
						<polygon id="68" points="912.9 42.9 951.7 41.8 951.1 2.2 912 3.2"></polygon>
						<polygon id="66" points="871.9 44 912.9 42.9 912 3.2 870.8 4.2"></polygon>
						<polygon id="63" points="833.2 45 871.9 44 870.8 4.2 832 5.1"></polygon>
						<polygon id="60" points="798.1 45.9 833.2 45 832 5.1 797 5.9"></polygon>
						<polygon id="57" points="798.1 45.9 797 5.9 759.5 6.8 760.5 46.9"></polygon>
						<polygon id="55" points="721.8 47.9 760.5 46.9 759.5 6.8 720.8 7.8"></polygon>
						<polygon id="52" points="681.1 49 721.8 47.9 720.8 7.8 680.6 8.7"></polygon>
						<polygon id="49" points="642.1 50 681.1 49 680.6 8.7 641.8 9.6"></polygon>
						<polygon id="47" points="641.8 9.6 606.8 10.5 607.2 51 642.1 50"></polygon>
						<polygon id="44" points="606.8 10.5 569.7 11.4 569.6 52 607.2 51"></polygon>
						<polygon id="41" points="569.7 11.4 530.7 12.3 530.7 53 569.6 52"></polygon>
						<polygon id="38" points="530.7 12.3 491.7 13.2 491.6 54 530.7 53"></polygon>
						<polygon id="36" points="491.7 13.2 454.6 14.1 454.1 55 491.6 54"></polygon>
						<polygon id="33" points="454.6 14.1 414.4 15.1 414 56.1 454.1 55"></polygon>
						<polygon id="30" points="376.5 16 376.3 57.1 414 56.1 414.4 15.1"></polygon>
						<polygon id="27" points="339.4 16.9 339.3 58 376.3 57.1 376.5 16"></polygon>
						<polygon id="25" points="301.2 17.8 301.9 59 339.3 58 339.4 16.9"></polygon>
						<polygon id="22" points="262.4 18.7 262.6 60.1 301.9 59 301.2 17.8"></polygon>
						<polygon id="19" points="226.8 19.6 226.8 61 262.6 60.1 262.4 18.7"></polygon>
						<polygon id="17" points="187.7 20.5 187.8 62.1 226.8 61 226.8 19.6"></polygon>
						<polygon id="14" points="150.4 21.4 150.6 63 187.8 62.1 187.7 20.5"></polygon>
						<polygon id="11" points="114.5 22.3 114.4 64 150.6 63 150.4 21.4"></polygon>
						<polygon id="9" points="75.9 23.2 75.6 65 114.4 64 114.5 22.3"></polygon>
						<polygon id="6" points="75.9 23.2 37.7 24.1 37.5 66 75.6 65"></polygon>
						<polygon id="3" points="37.7 24.1 1.3 25 0.8 67 37.5 66"></polygon>
					</g>
				</g>
				<g id="39" transform="translate(98.000000, 769.000000)">
					<g id="39C" transform="translate(0.000000, 78.000000)">
						<polygon id="73" points="1004.1 38.9 987.8 8.8 988.6 39.3"></polygon>
						<polygon id="72" points="950.1 40.2 988.6 39.3 987.8 8.8 983 2.84217094e-14 949.5 0.8"></polygon>
						<polygon id="69" points="911 41.2 950.1 40.2 949.5 0.8 910.1 1.8"></polygon>
						<polygon id="66" points="869.8 42.2 911 41.2 910.1 1.8 868.6 2.8"></polygon>
						<polygon id="63" points="831 43.1 869.8 42.2 868.6 2.8 829.8 3.7"></polygon>
						<polygon id="61" points="831 43.1 829.8 3.7 795 4.6 796 43.9"></polygon>
						<polygon id="58" points="758.5 44.8 796 43.9 795 4.6 757.5 5.5"></polygon>
						<polygon id="55" points="719.8 45.8 758.5 44.8 757.5 5.5 718.8 6.5"></polygon>
						<polygon id="52" points="679.6 46.7 719.8 45.8 718.8 6.5 679.1 7.4"></polygon>
						<polygon id="50" points="640.8 47.6 679.6 46.7 679.1 7.4 640.5 8.4"></polygon>
						<polygon id="47" points="640.5 8.4 605.4 9.2 605.8 48.5 640.8 47.6"></polygon>
						<polygon id="44" points="605.4 9.2 568.8 10.1 568.7 49.4 605.8 48.5"></polygon>
						<polygon id="41" points="568.8 10.1 529.7 11.1 529.7 50.3 568.7 49.4"></polygon>
						<polygon id="38" points="529.7 11.1 490.8 12 490.7 51.2 529.7 50.3"></polygon>
						<polygon id="36" points="490.8 12 454 12.9 453.6 52.1 490.7 51.2"></polygon>
						<polygon id="33" points="413.7 13.9 413.4 53.1 453.6 52.1 454 12.9"></polygon>
						<polygon id="30" points="375.7 14.8 375.5 54 413.4 53.1 413.7 13.9"></polygon>
						<polygon id="27" points="338.6 15.8 338.4 54.9 375.5 54 375.7 14.8"></polygon>
						<polygon id="25" points="299.7 16.7 300.2 55.8 338.4 54.9 338.6 15.8"></polygon>
						<polygon id="22" points="261.2 17.6 261.4 56.7 300.2 55.8 299.7 16.7"></polygon>
						<polygon id="19" points="225.7 18.5 225.8 57.6 261.4 56.7 261.2 17.6"></polygon>
						<polygon id="16" points="186.6 19.5 186.7 58.5 225.8 57.6 225.7 18.5"></polygon>
						<polygon id="14" points="149.2 20.4 149.4 59.4 186.7 58.5 186.6 19.5"></polygon>
						<polygon id="11" points="113.7 21.2 113.5 60.3 149.4 59.4 149.2 20.4"></polygon>
						<polygon id="8" points="113.7 21.2 75.2 22.2 74.9 61.2 113.5 60.3"></polygon>
						<polygon id="5" points="75.2 22.2 37 23.1 36.7 62.1 74.9 61.2"></polygon>
						<polygon id="2" points="37 23.1 0.7 24 0.3 63 36.7 62.1"></polygon>
					</g>
					<g id="39B" transform="translate(0.000000, 40.000000)">
						<polygon id="72" points="949.5 38.8 983 38 974.4 0.9 948.9 1.5"></polygon>
						<polygon id="70" points="910.1 39.8 949.5 38.8 948.9 1.5 909.3 2.5"></polygon>
						<polygon id="67" points="868.6 40.8 910.1 39.8 909.3 2.5 867.6 3.6"></polygon>
						<polygon id="64" points="868.6 40.8 867.6 3.6 828.7 4.5 829.8 41.7"></polygon>
						<polygon id="61" points="795 42.6 829.8 41.7 828.7 4.5 794 5.4"></polygon>
						<polygon id="58" points="757.5 43.5 795 42.6 794 5.4 756.6 6.3"></polygon>
						<polygon id="55" points="718.8 44.5 757.5 43.5 756.6 6.3 717.9 7.3"></polygon>
						<polygon id="53" points="679.1 45.4 718.8 44.5 717.9 7.3 678.7 8.2"></polygon>
						<polygon id="50" points="640.5 46.4 679.1 45.4 678.7 8.2 640.2 9.2"></polygon>
						<polygon id="47" points="640.2 9.2 605 10.1 605.4 47.2 640.5 46.4"></polygon>
						<polygon id="44" points="605 10.1 568.9 10.9 568.8 48.1 605.4 47.2"></polygon>
						<polygon id="42" points="568.9 10.9 529.7 11.9 529.7 49.1 568.8 48.1"></polygon>
						<polygon id="39" points="529.7 11.9 490.9 12.9 490.8 50 529.7 49.1"></polygon>
						<polygon id="36" points="454.3 13.8 454 50.9 490.8 50 490.9 12.9"></polygon>
						<polygon id="33" points="414 14.8 413.7 51.9 454 50.9 454.3 13.8"></polygon>
						<polygon id="31" points="375.8 15.7 375.7 52.8 413.7 51.9 414 14.8"></polygon>
						<polygon id="28" points="338.7 16.6 338.6 53.8 375.7 52.8 375.8 15.7"></polygon>
						<polygon id="25" points="299.1 17.6 299.7 54.7 338.6 53.8 338.7 16.6"></polygon>
						<polygon id="22" points="261 18.6 261.2 55.6 299.7 54.7 299.1 17.6"></polygon>
						<polygon id="19" points="225.6 19.4 225.7 56.5 261.2 55.6 261 18.6"></polygon>
						<polygon id="16" points="186.4 20.4 186.6 57.5 225.7 56.5 225.6 19.4"></polygon>
						<polygon id="14" points="149 21.3 149.2 58.4 186.6 57.5 186.4 20.4"></polygon>
						<polygon id="11" points="149 21.3 113.9 22.2 113.7 59.2 149.2 58.4"></polygon>
						<polygon id="8" points="113.9 22.2 75.5 23.1 75.2 60.2 113.7 59.2"></polygon>
						<polygon id="5" points="75.5 23.1 37.2 24.1 37 61.1 75.2 60.2"></polygon>
						<polygon id="3" points="37.2 24.1 1.1 25 0.7 62 37 61.1"></polygon>
					</g>
					<g id="39A" transform="translate(1.000000, 0.000000)">
						<polygon id="72" points="947.9 41.5 973.4 40.9 964 0.8 947.3 1.3"></polygon>
						<polygon id="70" points="908.3 42.5 947.9 41.5 947.3 1.3 907.4 2.5"></polygon>
						<polygon id="67" points="908.3 42.5 907.4 2.5 865.4 3.7 866.6 43.6"></polygon>
						<polygon id="64" points="827.7 44.5 866.6 43.6 865.4 3.7 826.5 4.9"></polygon>
						<polygon id="61" points="793 45.4 827.7 44.5 826.5 4.9 792 5.9"></polygon>
						<polygon id="58" points="755.6 46.3 793 45.4 792 5.9 754.6 7"></polygon>
						<polygon id="56" points="716.9 47.3 755.6 46.3 754.6 7 715.9 8.1"></polygon>
						<polygon id="53" points="677.7 48.2 716.9 47.3 715.9 8.1 677.2 9.3"></polygon>
						<polygon id="50" points="677.7 48.2 677.2 9.3 638.9 10.4 639.2 49.2"></polygon>
						<polygon id="47" points="638.9 10.4 603.6 11.5 604 50.1 639.2 49.2"></polygon>
						<polygon id="45" points="603.6 11.5 568 12.5 567.9 50.9 604 50.1"></polygon>
						<polygon id="42" points="568 12.5 528.7 13.7 528.7 51.9 567.9 50.9"></polygon>
						<polygon id="39" points="490 14.8 489.9 52.9 528.7 51.9 528.7 13.7"></polygon>
						<polygon id="36" points="453.7 15.9 453.3 53.8 489.9 52.9 490 14.8"></polygon>
						<polygon id="33" points="413.4 17.1 413 54.8 453.3 53.8 453.7 15.9"></polygon>
						<polygon id="31" points="375 18.3 374.8 55.7 413 54.8 413.4 17.1"></polygon>
						<polygon id="28" points="337.8 19.4 337.7 56.6 374.8 55.7 375 18.3"></polygon>
						<polygon id="25" points="297.6 20.6 298.1 57.6 337.7 56.6 337.8 19.4"></polygon>
						<polygon id="22" points="259.8 21 260 58.6 298.1 57.6 297.6 20.6"></polygon>
						<polygon id="20" points="224.5 21.4 224.6 59.4 260 58.6 259.8 21"></polygon>
						<polygon id="16" points="185.3 21.9 185.4 60.4 224.6 59.4 224.5 21.4"></polygon>
						<polygon id="13" points="185.3 21.9 147.8 22.3 148 61.3 185.4 60.4"></polygon>
						<polygon id="11" points="147.8 22.3 113 22.7 112.9 62.2 148 61.3"></polygon>
						<polygon id="8" points="113 22.7 74.9 23.1 74.5 63.1 112.9 62.2"></polygon>
						<polygon id="5" points="74.9 23.1 36.5 23.6 36.2 64.1 74.5 63.1"></polygon>
						<polygon id="3" points="36.5 23.6 0.5 24 0.1 65 36.2 64.1"></polygon>
					</g>
				</g>
				<g id="40" transform="translate(99.000000, 654.000000)">
					<g id="40C" transform="translate(0.000000, 77.000000)">
						<polygon id="73" points="947.3 39.3 964 38.8 955.1 0.7 946.7 1"></polygon>
						<polygon id="71" points="947.3 39.3 946.7 1 906.5 2 907.4 40.5"></polygon>
						<polygon id="68" points="865.4 41.7 907.4 40.5 906.5 2 864.3 3.1"></polygon>
						<polygon id="65" points="826.5 42.9 865.4 41.7 864.3 3.1 825.4 4.2"></polygon>
						<polygon id="62" points="792 43.9 826.5 42.9 825.4 4.2 791 5.1"></polygon>
						<polygon id="59" points="754.6 45 792 43.9 791 5.1 753.6 6.1"></polygon>
						<polygon id="56" points="715.9 46.1 754.6 45 753.6 6.1 715 7.1"></polygon>
						<polygon id="53" points="715.9 46.1 715 7.1 676.8 8.1 677.2 47.3"></polygon>
						<polygon id="51" points="638.9 48.4 677.2 47.3 676.8 8.1 638.6 9.1"></polygon>
						<polygon id="48" points="638.6 9.1 603.2 10.1 603.6 49.5 638.9 48.4"></polygon>
						<polygon id="45" points="603.2 10.1 568.1 11 568 50.5 603.6 49.5"></polygon>
						<polygon id="42" points="528.7 12 528.7 51.7 568 50.5 568.1 11"></polygon>
						<polygon id="39" points="490.1 13.1 490 52.8 528.7 51.7 528.7 12"></polygon>
						<polygon id="37" points="454.1 14 453.7 53.9 490 52.8 490.1 13.1"></polygon>
						<polygon id="34" points="413.7 15.1 413.4 55.1 453.7 53.9 454.1 14"></polygon>
						<polygon id="31" points="375.2 16.1 375 56.3 413.4 55.1 413.7 15.1"></polygon>
						<polygon id="28" points="338 17.1 337.8 57.4 375 56.3 375.2 16.1"></polygon>
						<polygon id="25" points="297.5 18.1 297.6 58.6 337.8 57.4 338 17.1"></polygon>
						<polygon id="22" points="259.6 19.2 259.8 59 297.6 58.6 297.5 18.1"></polygon>
						<polygon id="19" points="224.4 20.1 224.5 59.4 259.8 59 259.6 19.2"></polygon>
						<polygon id="16" points="224.4 20.1 185.2 21.1 185.3 59.9 224.5 59.4"></polygon>
						<polygon id="14" points="185.2 21.1 147.6 22.1 147.8 60.3 185.3 59.9"></polygon>
						<polygon id="11" points="147.6 22.1 113.2 23 113 60.7 147.8 60.3"></polygon>
						<polygon id="8" points="113.2 23 75.1 24 74.9 61.1 113 60.7"></polygon>
						<polygon id="5" points="75.1 24 36.8 25.1 36.5 61.6 74.9 61.1"></polygon>
						<polygon id="3" points="36.8 25.1 0.9 26 0.5 62 36.5 61.6"></polygon>
					</g>
					<g id="40B" transform="translate(0.000000, 39.000000)">
						<polygon id="72" points="955.1 38.7 946.1 0 946.7 39"></polygon>
						<polygon id="70" points="906.5 40 946.7 39 946.1 0 905.6 1"></polygon>
						<polygon id="67" points="864.3 41.1 906.5 40 905.6 1 863.1 2.2"></polygon>
						<polygon id="65" points="825.4 42.2 864.3 41.1 863.1 2.2 824.2 3.2"></polygon>
						<polygon id="62" points="791 43.1 825.4 42.2 824.2 3.2 790 4.1"></polygon>
						<polygon id="59" points="753.6 44.1 791 43.1 790 4.1 752.7 5.1"></polygon>
						<polygon id="56" points="753.6 44.1 752.7 5.1 714 6.1 715 45.1"></polygon>
						<polygon id="53" points="676.8 46.1 715 45.1 714 6.1 676.3 7.1"></polygon>
						<polygon id="50" points="638.6 47.1 676.8 46.1 676.3 7.1 638.4 8.1"></polygon>
						<polygon id="48" points="638.4 8.1 602.8 9.1 603.2 48.1 638.6 47.1"></polygon>
						<polygon id="45" points="568.3 10 568.1 49 603.2 48.1 602.8 9.1"></polygon>
						<polygon id="42" points="528.7 11 528.7 50 568.1 49 568.3 10"></polygon>
						<polygon id="39" points="490.2 12 490.1 51.1 528.7 50 528.7 11"></polygon>
						<polygon id="36" points="454.5 13 454.1 52 490.1 51.1 490.2 12"></polygon>
						<polygon id="34" points="414.1 14.1 413.7 53.1 454.1 52 454.5 13"></polygon>
						<polygon id="31" points="375.4 15.1 375.2 54.1 413.7 53.1 414.1 14.1"></polygon>
						<polygon id="28" points="338.1 16.1 338 55.1 375.2 54.1 375.4 15.1"></polygon>
						<polygon id="25" points="297.5 17.2 297.5 56.1 338 55.1 338.1 16.1"></polygon>
						<polygon id="22" points="259.4 18.2 259.6 57.2 297.5 56.1 297.5 17.2"></polygon>
						<polygon id="19" points="259.4 18.2 224.3 19.1 224.4 58.1 259.6 57.2"></polygon>
						<polygon id="17" points="224.3 19.1 185.1 20.1 185.2 59.1 224.4 58.1"></polygon>
						<polygon id="14" points="185.1 20.1 147.4 21.1 147.6 60.1 185.2 59.1"></polygon>
						<polygon id="11" points="147.4 21.1 113.4 22 113.2 61 147.6 60.1"></polygon>
						<polygon id="8" points="113.4 22 75.5 23 75.1 62 113.2 61"></polygon>
						<polygon id="6" points="75.5 23 37 24.1 36.8 63.1 75.1 62"></polygon>
						<polygon id="3" points="37 24.1 1.4 25 0.9 64 36.8 63.1"></polygon>
					</g>
					<g id="40A" transform="translate(1.000000, 0.000000)">
						<polygon id="71" points="904.6 40 945.1 39 943.2 30.7 936 0 903.7 0.8"></polygon>
						<polygon id="68" points="862.1 41.2 904.6 40 903.7 0.8 861 1.9"></polygon>
						<polygon id="65" points="823.2 42.2 862.1 41.2 861 1.9 822 2.9"></polygon>
						<polygon id="62" points="789 43.1 823.2 42.2 822 2.9 788 3.9"></polygon>
						<polygon id="59" points="789 43.1 788 3.9 750.7 5.2 751.7 44.1"></polygon>
						<polygon id="56" points="713 45.1 751.7 44.1 750.7 5.2 712 6.7"></polygon>
						<polygon id="53" points="675.3 46.1 713 45.1 712 6.7 674.8 8"></polygon>
						<polygon id="51" points="675.3 46.1 674.8 8 637.1 9.4 637.4 47.1"></polygon>
						<polygon id="48" points="601.8 48.1 637.4 47.1 637.1 9.4 601.4 10.7"></polygon>
						<polygon id="45" points="567.3 49 601.8 48.1 601.4 10.7 567.4 12"></polygon>
						<polygon id="42" points="527.7 13.4 527.7 50 567.3 49 567.4 12"></polygon>
						<polygon id="40" points="489.4 14.9 489.2 51 527.7 50 527.7 13.4"></polygon>
						<polygon id="37" points="453.9 16.2 453.5 52 489.2 51 489.4 14.9"></polygon>
						<polygon id="34" points="431 17 413.4 17.3 413.1 53.1 453.5 52 453.9 16.2"></polygon>
						<polygon id="31" points="374.5 17.9 374.4 54.1 413.1 53.1 413.4 17.3"></polygon>
						<polygon id="28" points="337.3 18.5 337.1 55.1 374.4 54.1 374.5 17.9"></polygon>
						<polygon id="25" points="296.4 19.2 296.5 56.2 337.1 55.1 337.3 18.5"></polygon>
						<polygon id="22" points="296.4 19.2 258.2 19.8 258.4 57.2 296.5 56.2"></polygon>
						<polygon id="20" points="258.2 19.8 223.2 20.4 223.3 58.1 258.4 57.2"></polygon>
						<polygon id="17" points="223.2 20.4 184 21 184.1 59.1 223.3 58.1"></polygon>
						<polygon id="14" points="184 21 146.2 21.6 146.4 60.1 184.1 59.1"></polygon>
						<polygon id="11" points="146.2 21.6 112.5 22.2 112.4 61 146.4 60.1"></polygon>
						<polygon id="8" points="112.5 22.2 74.8 22.8 74.5 62 112.4 61"></polygon>
						<polygon id="6" points="74.8 22.8 36.3 23.4 36 63.1 74.5 62"></polygon>
						<polygon id="3" points="36.3 23.4 0.8 24 0.4 64 36 63.1"></polygon>
					</g>
				</g>
				<g id="41" transform="translate(100.000000, 564.000000)">
					<g id="41C" transform="translate(0.000000, 53.000000)">
						<polygon id="70" points="903.7 37.8 936 37 924.9 0.7 902.9 1.3"></polygon>
						<polygon id="68" points="861 38.9 903.7 37.8 902.9 1.3 863.1 2.2"></polygon>
						<polygon id="65" points="822 39.9 861 38.9 863.1 2.2 824.8 3.1"></polygon>
						<polygon id="62" points="822 39.9 824.8 3.1 788.1 4 788 40.9"></polygon>
						<polygon id="59" points="750.7 42.2 788 40.9 788.1 4 749.8 5"></polygon>
						<polygon id="56" points="712 43.7 750.7 42.2 749.8 5 711.1 5.9"></polygon>
						<polygon id="53" points="712 43.7 711.1 5.9 674.4 6.8 674.8 45"></polygon>
						<polygon id="51" points="637.1 46.4 674.8 45 674.4 6.8 636.8 7.7"></polygon>
						<polygon id="48" points="601.4 47.7 637.1 46.4 636.8 7.7 601 8.5"></polygon>
						<polygon id="45" points="601.4 47.7 601 8.5 567.5 9.3 567.4 49"></polygon>
						<polygon id="43" points="527.7 50.4 567.4 49 567.5 9.3 527.7 10.3"></polygon>
						<polygon id="40" points="527.7 50.4 527.7 10.3 489.5 11.2 489.4 51.9"></polygon>
						<polygon id="37" points="453.9 53.2 489.4 51.9 489.5 11.2 454.3 12.1"></polygon>
						<polygon id="34" points="413.8 13.1 413.4 54.3 431 54 453.9 53.2 454.3 12.1"></polygon>
						<polygon id="32" points="374.7 14 374.5 54.9 413.4 54.3 413.8 13.1"></polygon>
						<polygon id="28" points="337.4 14.9 337.3 55.5 374.5 54.9 374.7 14"></polygon>
						<polygon id="26" points="337.4 14.9 296.4 15.9 296.4 56.2 337.3 55.5"></polygon>
						<polygon id="23" points="296.4 15.9 258 16.8 258.2 56.8 296.4 56.2"></polygon>
						<polygon id="20" points="258 16.8 223.2 17.6 223.2 57.4 258.2 56.8"></polygon>
						<polygon id="17" points="223.2 17.6 183.9 18.6 184 58 223.2 57.4"></polygon>
						<polygon id="14" points="183.9 18.6 146 19.5 146.2 58.6 184 58"></polygon>
						<polygon id="11" points="146 19.5 112.7 20.3 112.5 59.2 146.2 58.6"></polygon>
						<polygon id="9" points="112.7 20.3 75.1 21.2 74.8 59.8 112.5 59.2"></polygon>
						<polygon id="6" points="75.1 21.2 36.5 22.2 36.3 60.4 74.8 59.8"></polygon>
						<polygon id="3" points="36.5 22.2 1.2 23 0.8 61 36.3 60.4"></polygon>
					</g>
					<g id="41B" transform="translate(1.000000, 15.000000)">
						<polygon id="69" points="901.9 39.3 923.9 38.7 912.3 0.9 901 1.2"></polygon>
						<polygon id="67" points="862.1 40.2 901.9 39.3 901 1.2 864.4 2"></polygon>
						<polygon id="64" points="862.1 40.2 864.4 2 826.7 2.8 823.8 41.1"></polygon>
						<polygon id="61" points="787.1 42 823.8 41.1 826.7 2.8 787.3 3.7"></polygon>
						<polygon id="58" points="748.8 43 787.1 42 787.3 3.7 747.8 4.5"></polygon>
						<polygon id="55" points="748.8 43 747.8 4.5 709.1 5.4 710.1 43.9"></polygon>
						<polygon id="53" points="673.4 44.8 710.1 43.9 709.1 5.4 672.9 6.2"></polygon>
						<polygon id="50" points="635.8 45.7 673.4 44.8 672.9 6.2 635.5 7"></polygon>
						<polygon id="47" points="635.8 45.7 635.5 7 599.6 7.8 600 46.5"></polygon>
						<polygon id="44" points="566.5 47.3 600 46.5 599.6 7.8 566.6 8.5"></polygon>
						<polygon id="42" points="566.5 47.3 566.6 8.5 526.7 9.4 526.7 48.3"></polygon>
						<polygon id="39" points="488.5 49.2 526.7 48.3 526.7 9.4 488.6 10.3"></polygon>
						<polygon id="36" points="453.3 50.1 488.5 49.2 488.6 10.3 453.7 11"></polygon>
						<polygon id="33" points="412.8 51.1 453.3 50.1 453.7 11 413.1 11.9"></polygon>
						<polygon id="30" points="373.9 12.8 373.7 52 412.8 51.1 413.1 11.9"></polygon>
						<polygon id="27" points="373.9 12.8 336.6 13.6 336.4 52.9 373.7 52"></polygon>
						<polygon id="24" points="336.6 13.6 295.4 14.5 295.4 53.9 336.4 52.9"></polygon>
						<polygon id="22" points="295.4 14.5 256.8 15.4 257 54.8 295.4 53.9"></polygon>
						<polygon id="19" points="256.8 15.4 222.1 16.1 222.2 55.6 257 54.8"></polygon>
						<polygon id="16" points="222.1 16.1 182.8 17 182.9 56.6 222.2 55.6"></polygon>
						<polygon id="13" points="182.8 17 144.8 17.8 145 57.5 182.9 56.6"></polygon>
						<polygon id="11" points="144.8 17.8 111.9 18.6 111.7 58.3 145 57.5"></polygon>
						<polygon id="8" points="111.9 18.6 74.4 19.4 74.1 59.2 111.7 58.3"></polygon>
						<polygon id="5" points="74.4 19.4 35.8 20.2 35.5 60.2 74.1 59.2"></polygon>
						<polygon id="3" points="35.8 20.2 0.6 21 0.2 61 35.5 60.2"></polygon>
					</g>
					<g id="41A" transform="translate(1.000000, 0.000000)">
						<polygon id="69" points="901 16.2 912.3 15.9 907.7 0.8 900.7 0.8"></polygon>
						<polygon id="67" points="901 16.2 900.7 0.8 865.3 0.9 864.4 17"></polygon>
						<polygon id="64" points="826.7 17.8 864.4 17 865.3 0.9 857.3 0.9 828 0.9"></polygon>
						<polygon id="61" points="787.3 18.7 826.7 17.8 828 0.9 821.3 0.9 787.3 1"></polygon>
						<polygon id="58" points="787.3 18.7 787.3 1 784 1 747.3 1 747.8 19.5"></polygon>
						<polygon id="55" points="709.1 20.4 747.8 19.5 747.3 1 744.7 1 708.7 1.1"></polygon>
						<polygon id="53" points="672.9 21.2 709.1 20.4 708.7 1.1 705.3 1.1 672.7 1.1"></polygon>
						<polygon id="50" points="672.9 21.2 672.7 1.1 666.7 1.1 635.3 1.2 635.5 22"></polygon>
						<polygon id="47" points="599.6 22.8 635.5 22 635.3 1.2 628.7 1.2 599.3 1.2"></polygon>
						<polygon id="45" points="599.6 22.8 599.3 1.2 592 1.2 566.7 1.3 566.6 23.5"></polygon>
						<polygon id="42" points="526.7 24.4 566.6 23.5 566.7 1.3 553.3 1.3 526.7 1.3"></polygon>
						<polygon id="39" points="488.6 25.3 526.7 24.4 526.7 1.3 512.7 1.3 488.7 1.4"></polygon>
						<polygon id="36" points="453.7 26 488.6 25.3 488.7 1.4 476.7 1.4 454 1.4"></polygon>
						<polygon id="33" points="413.1 26.9 453.7 26 454 1.4 437.3 1.4 413.3 1.5"></polygon>
						<polygon id="30" points="413.3 1.5 398.7 1.5 374 1.5 373.9 27.8 413.1 26.9"></polygon>
						<polygon id="28" points="374 1.5 358.7 1.5 336.7 1.6 336.6 28.6 373.9 27.8"></polygon>
						<polygon id="25" points="336.7 1.6 320 1.6 295.3 1.6 295.4 29.5 336.6 28.6"></polygon>
						<polygon id="22" points="295.3 1.6 283.3 1.6 256.7 1.7 256.8 30.4 295.4 29.5"></polygon>
						<polygon id="19" points="256.7 1.7 246 1.7 222 1.7 222.1 31.1 256.8 30.4"></polygon>
						<polygon id="17" points="222 1.7 206 1.7 182.7 1.8 182.8 32 222.1 31.1"></polygon>
						<polygon id="14" points="182.7 1.8 166.7 1.8 144.7 1.8 144.8 32.8 182.8 32"></polygon>
						<polygon id="11" points="144.7 1.8 129.3 1.8 112 1.9 111.9 33.6 144.8 32.8"></polygon>
						<polygon id="8" points="112 1.9 90.7 1.9 74.7 1.9 74.4 34.4 111.9 33.6"></polygon>
						<polygon id="5" points="74.7 1.9 54 1.9 36 2 35.8 35.2 74.4 34.4"></polygon>
						<polygon id="3" points="36 2 16 2 0.5 2.2 0.6 36 35.8 35.2"></polygon>
					</g>
				</g>
				<g id="42" transform="translate(117.000000, 451.000000)">
					<g id="42C" transform="translate(0.000000, 75.000000)">
						<polygon id="67" points="884.7 38.8 891.7 38.8 881 4 881.1 38.5"></polygon>
						<polygon id="65" points="841.3 38.9 849.3 38.9 884.7 38.8 881.1 38.5 881 4 842 3.8"></polygon>
						<polygon id="62" points="805.3 38.9 812 38.9 841.3 38.9 842 3.8 805.9 3.7"></polygon>
						<polygon id="59" points="771.3 39 805.3 38.9 805.9 3.7 768.2 3.5 768 39"></polygon>
						<polygon id="56" points="728.7 39 731.3 39 768 39 768.2 3.5 729 3.3"></polygon>
						<polygon id="53" points="689.3 39.1 692.7 39.1 728.7 39 729 3.3 689.8 3.1"></polygon>
						<polygon id="51" points="656.7 39.1 689.3 39.1 689.8 3.1 651 3 650.7 39.1"></polygon>
						<polygon id="48" points="612.7 39.2 619.3 39.2 650.7 39.1 651 3 612.9 2.8"></polygon>
						<polygon id="45" points="583.3 39.2 612.7 39.2 612.9 2.8 576.1 2.6 576 39.2"></polygon>
						<polygon id="42" points="537.3 39.3 550.7 39.3 576 39.2 576.1 2.6 537.4 2.4"></polygon>
						<polygon id="39" points="496.7 39.3 510.7 39.3 537.3 39.3 537.4 2.4 496.8 2.3"></polygon>
						<polygon id="37" points="460.7 39.4 472.7 39.4 496.7 39.3 496.8 2.3 460.8 2.1"></polygon>
						<polygon id="33" points="421.3 39.4 438 39.4 460.7 39.4 460.8 2.1 421.6 1.9"></polygon>
						<polygon id="31" points="382.7 39.5 397.3 39.5 421.3 39.4 421.6 1.9 383 1.7"></polygon>
						<polygon id="28" points="382.7 39.5 383 1.7 342.9 1.6 342.7 39.5 358 39.5"></polygon>
						<polygon id="25" points="342.7 39.5 342.9 1.6 304.2 1.4 304 39.6 320.7 39.6"></polygon>
						<polygon id="23" points="304 39.6 304.2 1.4 267.5 1.2 267.3 39.6 279.3 39.6"></polygon>
						<polygon id="20" points="267.3 39.6 267.5 1.2 230.2 1 230 39.7 240.7 39.7"></polygon>
						<polygon id="17" points="230 39.7 230.2 1 190.3 0.9 190 39.7 206 39.7"></polygon>
						<polygon id="14" points="190 39.7 190.3 0.9 151 0.7 150.7 39.8 166.7 39.8"></polygon>
						<polygon id="12" points="150.7 39.8 151 0.7 113.7 0.5 113.3 39.8 128.7 39.8"></polygon>
						<polygon id="9" points="113.3 39.8 113.7 0.5 75.1 0.3 74.7 39.9 96 39.9"></polygon>
						<polygon id="6" points="74.7 39.9 75.1 0.3 38.3 0.2 38 39.9 58.7 39.9"></polygon>
						<polygon id="3" points="38 39.9 38.3 0.2 0 0 0 40 20 40"></polygon>
					</g>
					<g id="42B" transform="translate(0.000000, 38.000000)">
						<polygon id="63" points="842 40.8 881 41 858.7 2.6 842.7 2.5"></polygon>
						<polygon id="61" points="842 40.8 842.7 2.5 806.6 2.4 805.9 40.7"></polygon>
						<polygon id="58" points="768.2 40.5 805.9 40.7 806.6 2.4 768.3 2.3"></polygon>
						<polygon id="56" points="729 40.3 768.2 40.5 768.3 2.3 729.4 2.2"></polygon>
						<polygon id="53" points="729 40.3 729.4 2.2 690.2 2.1 689.8 40.1"></polygon>
						<polygon id="50" points="651 40 689.8 40.1 690.2 2.1 651.4 2"></polygon>
						<polygon id="47" points="651 40 651.4 2 613.2 1.8 612.9 39.8"></polygon>
						<polygon id="45" points="576.1 39.6 612.9 39.8 613.2 1.8 576.3 1.7"></polygon>
						<polygon id="42" points="537.4 39.4 576.1 39.6 576.3 1.7 537.6 1.6"></polygon>
						<polygon id="39" points="496.8 39.3 537.4 39.4 537.6 1.6 497 1.5"></polygon>
						<polygon id="36" points="460.8 39.1 496.8 39.3 497 1.5 460.8 1.4"></polygon>
						<polygon id="33" points="421.6 38.9 460.8 39.1 460.8 1.4 421.8 1.3"></polygon>
						<polygon id="31" points="383 38.7 421.6 38.9 421.8 1.3 383.2 1.2"></polygon>
						<polygon id="28" points="383.2 1.2 343.1 1 342.9 38.6 383 38.7"></polygon>
						<polygon id="25" points="343.1 1 304.4 0.9 304.2 38.4 342.9 38.6"></polygon>
						<polygon id="22" points="304.4 0.9 267.7 0.8 267.5 38.2 304.2 38.4"></polygon>
						<polygon id="19" points="267.7 0.8 230.4 0.7 230.2 38 267.5 38.2"></polygon>
						<polygon id="17" points="230.4 0.7 190.5 0.6 190.3 37.9 230.2 38"></polygon>
						<polygon id="14" points="190.5 0.6 151.3 0.5 151 37.7 190.3 37.9"></polygon>
						<polygon id="11" points="151.3 0.5 114.1 0.3 113.7 37.5 151 37.7"></polygon>
						<polygon id="8" points="114.1 0.3 75.5 0.2 75.1 37.3 113.7 37.5"></polygon>
						<polygon id="5" points="75.5 0.2 38.5 0.1 38.3 37.2 75.1 37.3"></polygon>
						<polygon id="3" points="38.5 0.1 0 0 0 37 38.3 37.2"></polygon>
					</g>
					<g id="42A">
						<polygon id="61" points="806.6 40.4 842.7 40.5 843.2 13.9 836.2 1.9 807.3 1.8"></polygon>
						<polygon id="59" points="768.3 40.3 806.6 40.4 807.3 1.8 768.5 1.7"></polygon>
						<polygon id="56" points="768.3 40.3 768.5 1.7 729.7 1.6 729.4 40.2"></polygon>
						<polygon id="53" points="690.2 40.1 729.4 40.2 729.7 1.6 690.7 1.5"></polygon>
						<polygon id="50" points="690.2 40.1 690.7 1.5 651.7 1.5 651.4 40"></polygon>
						<polygon id="48" points="613.2 39.8 651.4 40 651.7 1.5 613.5 1.4"></polygon>
						<polygon id="45" points="576.3 39.7 613.2 39.8 613.5 1.4 576.4 1.3"></polygon>
						<polygon id="42" points="537.6 39.6 576.3 39.7 576.4 1.3 537.7 1.2"></polygon>
						<polygon id="39" points="497 39.5 537.6 39.6 537.7 1.2 497.1 1.1"></polygon>
						<polygon id="37" points="460.8 39.4 497 39.5 497.1 1.1 460.9 1"></polygon>
						<polygon id="34" points="421.8 39.3 460.8 39.4 460.9 1 422.1 0.9"></polygon>
						<polygon id="31" points="383.2 39.2 421.8 39.3 422.1 0.9 383.5 0.9"></polygon>
						<polygon id="28" points="383.5 0.9 343.3 0.8 343.1 39 383.2 39.2"></polygon>
						<polygon id="26" points="343.3 0.8 304.6 0.7 304.4 38.9 343.1 39"></polygon>
						<polygon id="23" points="304.6 0.7 267.9 0.6 267.7 38.8 304.4 38.9"></polygon>
						<polygon id="20" points="267.9 0.6 230.6 0.5 230.4 38.7 267.7 38.8"></polygon>
						<polygon id="18" points="230.6 0.5 190.8 0.4 190.5 38.6 230.4 38.7"></polygon>
						<polygon id="15" points="190.8 0.4 151.5 0.3 151.3 38.5 190.5 38.6"></polygon>
						<polygon id="12" points="151.5 0.3 114.5 0.3 114.1 38.3 151.3 38.5"></polygon>
						<polygon id="9" points="114.5 0.3 76 0.2 75.5 38.2 114.1 38.3"></polygon>
						<polygon id="6" points="76 0.2 38.8 0.1 38.5 38.1 75.5 38.2"></polygon>
						<polygon id="3" points="38.8 0.1 0 0 0 38 38.5 38.1"></polygon>
					</g>
				</g>
				<g id="43" transform="translate(0.000000, 335.000000)">
					<g id="43C" transform="translate(0.000000, 75.000000)">
						<polygon id="69" points="924.3 42.8 953.2 42.9 931.6 5.6 924.9 5.6"></polygon>
						<polygon id="67" points="924.3 42.8 924.9 5.6 885.7 5.4 885.5 42.7"></polygon>
						<polygon id="64" points="846.7 42.6 885.5 42.7 885.7 5.4 847.1 5.1"></polygon>
						<polygon id="61" points="846.7 42.6 847.1 5.1 808.1 4.9 807.7 42.5"></polygon>
						<polygon id="59" points="768.7 42.5 807.7 42.5 808.1 4.9 769.1 4.6"></polygon>
						<polygon id="55" points="730.5 42.4 768.7 42.5 769.1 4.6 730.8 4.4"></polygon>
						<polygon id="52" points="693.4 42.3 730.5 42.4 730.8 4.4 693.5 4.2"></polygon>
						<polygon id="49" points="654.7 42.2 693.4 42.3 693.5 4.2 654.8 4"></polygon>
						<polygon id="47" points="614.1 42.1 654.7 42.2 654.8 4 614.3 3.7"></polygon>
						<polygon id="44" points="577.9 42 614.1 42.1 614.3 3.7 578 3.5"></polygon>
						<polygon id="41" points="539.1 41.9 577.9 42 578 3.5 539.3 3.3"></polygon>
						<polygon id="39" points="500.5 41.9 539.1 41.9 539.3 3.3 500.8 3"></polygon>
						<polygon id="36" points="500.8 3 460.6 2.8 460.3 41.8 500.5 41.9"></polygon>
						<polygon id="33" points="460.6 2.8 421.8 2.6 421.6 41.7 460.3 41.8"></polygon>
						<polygon id="31" points="421.8 2.6 385.1 2.3 384.9 41.6 421.6 41.7"></polygon>
						<polygon id="28" points="385.1 2.3 347.8 2.1 347.6 41.5 384.9 41.6"></polygon>
						<polygon id="25" points="347.8 2.1 308.1 1.9 307.8 41.4 347.6 41.5"></polygon>
						<polygon id="22" points="308.1 1.9 268.8 1.6 268.5 41.3 307.8 41.4"></polygon>
						<polygon id="20" points="268.8 1.6 231.9 1.4 231.5 41.3 268.5 41.3"></polygon>
						<polygon id="17" points="231.9 1.4 193.4 1.2 193 41.2 231.5 41.3"></polygon>
						<polygon id="14" points="193.4 1.2 156.1 0.9 155.8 41.1 193 41.2"></polygon>
						<polygon id="12" points="156.1 0.9 117.4 0.7 117 41 155.8 41.1"></polygon>
						<polygon id="9" points="77.3 0.5 77 41 117 41 117.4 0.7"></polygon>
						<polygon id="6" points="40.4 0.2 40 41 77 41 77.3 0.5"></polygon>
						<polygon id="4" points="0.4 0 0 41 40 41 40.4 0.2"></polygon>
					</g>
					<g id="43B" transform="translate(0.000000, 36.000000)">
						<polygon id="67" points="885.7 44.4 924.9 44.6 925.1 33.4 908.7 5.2 885.8 5"></polygon>
						<polygon id="65" points="885.7 44.4 885.8 5 847.5 4.8 847.1 44.1"></polygon>
						<polygon id="62" points="808.1 43.9 847.1 44.1 847.5 4.8 808.6 4.6"></polygon>
						<polygon id="60" points="769.1 43.6 808.1 43.9 808.6 4.6 769.5 4.4"></polygon>
						<polygon id="57" points="730.8 43.4 769.1 43.6 769.5 4.4 731.1 4.1"></polygon>
						<polygon id="54" points="693.5 43.2 730.8 43.4 731.1 4.1 693.7 3.9"></polygon>
						<polygon id="51" points="654.8 43 693.5 43.2 693.7 3.9 654.9 3.7"></polygon>
						<polygon id="48" points="614.3 42.7 654.8 43 654.9 3.7 614.5 3.5"></polygon>
						<polygon id="45" points="578 42.5 614.3 42.7 614.5 3.5 578.1 3.3"></polygon>
						<polygon id="43" points="539.3 42.3 578 42.5 578.1 3.3 539.6 3.1"></polygon>
						<polygon id="40" points="500.8 42 539.3 42.3 539.6 3.1 501.1 2.8"></polygon>
						<polygon id="37" points="501.1 2.8 460.8 2.6 460.6 41.8 500.8 42"></polygon>
						<polygon id="34" points="460.8 2.6 422 2.4 421.8 41.6 460.6 41.8"></polygon>
						<polygon id="31" points="422 2.4 385.2 2.2 385.1 41.3 421.8 41.6"></polygon>
						<polygon id="28" points="385.2 2.2 348 2 347.8 41.1 385.1 41.3"></polygon>
						<polygon id="26" points="348 2 308.4 1.8 308.1 40.9 347.8 41.1"></polygon>
						<polygon id="23" points="308.4 1.8 269.1 1.5 268.8 40.6 308.1 40.9"></polygon>
						<polygon id="20" points="269.1 1.5 232.3 1.3 231.9 40.4 268.8 40.6"></polygon>
						<polygon id="17" points="232.3 1.3 193.8 1.1 193.4 40.2 231.9 40.4"></polygon>
						<polygon id="14" points="193.8 1.1 156.4 0.9 156.1 39.9 193.4 40.2"></polygon>
						<polygon id="11" points="117.7 0.7 117.4 39.7 156.1 39.9 156.4 0.9"></polygon>
						<polygon id="9" points="77.5 0.4 77.3 39.5 117.4 39.7 117.7 0.7"></polygon>
						<polygon id="6" points="40.7 0.2 40.4 39.2 77.3 39.5 77.5 0.4"></polygon>
						<polygon id="3" points="40.7 0.2 0.7 0 0.4 39 40.4 39.2"></polygon>
					</g>
					<g id="43A">
						<polygon id="69" points="908.7 41.2 886 2 885.8 41"></polygon>
						<polygon id="67" points="847.5 40.8 885.8 41 886 2 847.8 1.9"></polygon>
						<polygon id="64" points="808.6 40.6 847.5 40.8 847.8 1.9 809 1.8"></polygon>
						<polygon id="61" points="769.5 40.4 808.6 40.6 809 1.8 769.8 1.7"></polygon>
						<polygon id="58" points="731.1 40.1 769.5 40.4 769.8 1.7 731.4 1.7"></polygon>
						<polygon id="55" points="693.7 39.9 731.1 40.1 731.4 1.7 693.8 1.6"></polygon>
						<polygon id="52" points="654.9 39.7 693.7 39.9 693.8 1.6 655 1.5"></polygon>
						<polygon id="49" points="614.5 39.5 654.9 39.7 655 1.5 614.6 1.4"></polygon>
						<polygon id="47" points="578.1 39.3 614.5 39.5 614.6 1.4 578.2 1.3"></polygon>
						<polygon id="44" points="539.6 39.1 578.1 39.3 578.2 1.3 539.8 1.2"></polygon>
						<polygon id="41" points="539.6 39.1 539.8 1.2 501.4 1.1 501.1 38.8"></polygon>
						<polygon id="38" points="501.4 1.1 461 1 460.8 38.6 501.1 38.8"></polygon>
						<polygon id="34" points="461 1 422.2 1 422 38.4 460.8 38.6"></polygon>
						<polygon id="32" points="422.2 1 385.4 0.9 385.2 38.2 422 38.4"></polygon>
						<polygon id="29" points="385.4 0.9 348.2 0.8 348 38 385.2 38.2"></polygon>
						<polygon id="26" points="348.2 0.8 308.6 0.7 308.4 37.8 348 38"></polygon>
						<polygon id="23" points="308.6 0.7 269.4 0.6 269.1 37.5 308.4 37.8"></polygon>
						<polygon id="20" points="269.4 0.6 232.6 0.5 232.3 37.3 269.1 37.5"></polygon>
						<polygon id="18" points="232.6 0.5 194.3 0.4 193.8 37.1 232.3 37.3"></polygon>
						<polygon id="15" points="156.6 0.4 156.4 36.9 193.8 37.1 194.3 0.4"></polygon>
						<polygon id="12" points="118 0.3 117.7 36.7 156.4 36.9 156.6 0.4"></polygon>
						<polygon id="9" points="77.8 0.2 77.5 36.4 117.7 36.7 118 0.3"></polygon>
						<polygon id="6" points="77.8 0.2 41 0.1 40.7 36.2 77.5 36.4"></polygon>
						<polygon id="3" points="41 0.1 1 0 0.7 36 40.7 36.2"></polygon>
					</g>
				</g>
				<g id="44" transform="translate(1.000000, 218.000000)">
					<g id="44C" transform="translate(0.000000, 77.000000)">
						<polygon id="65" points="846.8 41.9 885 42 885.3 5 847.2 4.8"></polygon>
						<polygon id="63" points="808 41.8 846.8 41.9 847.2 4.8 808.5 4.6"></polygon>
						<polygon id="60" points="768.8 41.7 808 41.8 808.5 4.6 769.2 4.3"></polygon>
						<polygon id="57" points="730.4 41.7 768.8 41.7 769.2 4.3 730.7 4.1"></polygon>
						<polygon id="54" points="692.8 41.6 730.4 41.7 730.7 4.1 692.9 3.9"></polygon>
						<polygon id="52" points="654 41.5 692.8 41.6 692.9 3.9 654.1 3.7"></polygon>
						<polygon id="49" points="613.6 41.4 654 41.5 654.1 3.7 613.8 3.5"></polygon>
						<polygon id="46" points="577.2 41.3 613.6 41.4 613.8 3.5 577.3 3.3"></polygon>
						<polygon id="44" points="577.2 41.3 577.3 3.3 539.1 3 538.8 41.2"></polygon>
						<polygon id="41" points="538.8 41.2 539.1 3 500.7 2.8 500.4 41.1"></polygon>
						<polygon id="38" points="500.4 41.1 500.7 2.8 460.3 2.6 460 41"></polygon>
						<polygon id="35" points="460.3 2.6 421.4 2.4 421.2 41 460 41"></polygon>
						<polygon id="33" points="421.4 2.4 384.6 2.2 384.4 40.9 421.2 41"></polygon>
						<polygon id="30" points="384.6 2.2 347.4 2 347.2 40.8 384.4 40.9"></polygon>
						<polygon id="27" points="347.4 2 307.9 1.7 307.6 40.7 347.2 40.8"></polygon>
						<polygon id="24" points="307.9 1.7 268.7 1.5 268.4 40.6 307.6 40.7"></polygon>
						<polygon id="22" points="268.7 1.5 232 1.3 231.6 40.5 268.4 40.6"></polygon>
						<polygon id="19" points="193.7 1.1 193.3 40.4 231.6 40.5 232 1.3"></polygon>
						<polygon id="16" points="155.9 0.9 155.6 40.4 193.3 40.4 193.7 1.1"></polygon>
						<polygon id="13" points="117.4 0.7 117 40.3 155.6 40.4 155.9 0.9"></polygon>
						<polygon id="11" points="117.4 0.7 77 0.4 76.8 40.2 117 40.3"></polygon>
						<polygon id="8" points="77 0.4 40.4 0.2 40 40.1 76.8 40.2"></polygon>
						<polygon id="6" points="40.4 0.2 0.4 0 0 40 40 40.1"></polygon>
					</g>
					<g id="44B" transform="translate(0.000000, 39.000000)">
						<polygon id="65" points="847.2 42.8 885.3 43 885.7 4 847.6 3.8"></polygon>
						<polygon id="63" points="808.5 42.6 847.2 42.8 847.6 3.8 809 3.7"></polygon>
						<polygon id="60" points="769.2 42.3 808.5 42.6 809 3.7 769.6 3.5"></polygon>
						<polygon id="57" points="730.7 42.1 769.2 42.3 769.6 3.5 731 3.3"></polygon>
						<polygon id="54" points="692.9 41.9 730.7 42.1 731 3.3 693.1 3.1"></polygon>
						<polygon id="52" points="654.1 41.7 692.9 41.9 693.1 3.1 654.2 3"></polygon>
						<polygon id="49" points="613.8 41.5 654.1 41.7 654.2 3 613.9 2.8"></polygon>
						<polygon id="46" points="613.8 41.5 613.9 2.8 577.4 2.6 577.3 41.3"></polygon>
						<polygon id="44" points="577.3 41.3 577.4 2.6 539.3 2.4 539.1 41"></polygon>
						<polygon id="41" points="539.1 41 539.3 2.4 501 2.3 500.7 40.8"></polygon>
						<polygon id="38" points="500.7 40.8 501 2.3 460.5 2.1 460.3 40.6"></polygon>
						<polygon id="35" points="460.3 40.6 460.5 2.1 421.6 1.9 421.4 40.4"></polygon>
						<polygon id="33" points="421.6 1.9 384.8 1.7 384.6 40.2 421.4 40.4"></polygon>
						<polygon id="30" points="384.8 1.7 347.6 1.6 347.4 40 384.6 40.2"></polygon>
						<polygon id="27" points="347.6 1.6 308.2 1.4 307.9 39.7 347.4 40"></polygon>
						<polygon id="24" points="308.2 1.4 269 1.2 268.7 39.5 307.9 39.7"></polygon>
						<polygon id="22" points="232.4 1.1 232 39.3 268.7 39.5 269 1.2"></polygon>
						<polygon id="19" points="194.1 0.9 193.7 39.1 232 39.3 232.4 1.1"></polygon>
						<polygon id="16" points="156.2 0.7 155.9 38.9 193.7 39.1 194.1 0.9"></polygon>
						<polygon id="13" points="156.2 0.7 117.7 0.5 117.4 38.7 155.9 38.9"></polygon>
						<polygon id="11" points="117.7 0.5 77.3 0.4 77 38.4 117.4 38.7"></polygon>
						<polygon id="8" points="77.3 0.4 40.7 0.2 40.4 38.2 77 38.4"></polygon>
						<polygon id="6" points="40.7 0.2 0.7 0 0.4 38 40.4 38.2"></polygon>
					</g>
					<g id="44A">
						<polygon id="64" points="847.6 42.8 885.7 43 886 5 847.9 4.8"></polygon>
						<polygon id="62" points="809 42.7 847.6 42.8 847.9 4.8 809.4 4.6"></polygon>
						<polygon id="59" points="769.6 42.5 809 42.7 809.4 4.6 769.9 4.3"></polygon>
						<polygon id="56" points="731 42.3 769.6 42.5 769.9 4.3 731.3 4.1"></polygon>
						<polygon id="54" points="693.1 42.1 731 42.3 731.3 4.1 693.2 3.9"></polygon>
						<polygon id="51" points="654.2 42 693.1 42.1 693.2 3.9 654.4 3.7"></polygon>
						<polygon id="48" points="654.2 42 654.4 3.7 614.1 3.5 613.9 41.8"></polygon>
						<polygon id="45" points="613.9 41.8 614.1 3.5 577.5 3.3 577.4 41.6"></polygon>
						<polygon id="42" points="577.4 41.6 577.5 3.3 539.6 3 539.3 41.4"></polygon>
						<polygon id="39" points="539.3 41.4 539.6 3 501.3 2.8 501 41.3"></polygon>
						<polygon id="36" points="501 41.3 501.3 2.8 460.7 2.6 460.5 41.1"></polygon>
						<polygon id="34" points="460.5 41.1 460.7 2.6 421.8 2.4 421.6 40.9"></polygon>
						<polygon id="31" points="421.6 40.9 421.8 2.4 385 2.2 384.8 40.7"></polygon>
						<polygon id="28" points="385 2.2 347.8 2 347.6 40.6 384.8 40.7"></polygon>
						<polygon id="25" points="347.8 2 308.5 1.7 308.2 40.4 347.6 40.6"></polygon>
						<polygon id="22" points="269.3 1.5 269 40.2 308.2 40.4 308.5 1.7"></polygon>
						<polygon id="19" points="232.8 1.3 232.4 40.1 269 40.2 269.3 1.5"></polygon>
						<polygon id="16" points="194.6 1.1 194.1 39.9 232.4 40.1 232.8 1.3"></polygon>
						<polygon id="13" points="194.6 1.1 156.5 0.9 156.2 39.7 194.1 39.9"></polygon>
						<polygon id="11" points="156.5 0.9 118.1 0.7 117.7 39.5 156.2 39.7"></polygon>
						<polygon id="8" points="118.1 0.7 77.5 0.4 77.3 39.4 117.7 39.5"></polygon>
						<polygon id="5" points="77.5 0.4 41.1 0.2 40.7 39.2 77.3 39.4"></polygon>
						<polygon id="2" points="41.1 0.2 1.1 0 0.7 39 40.7 39.2"></polygon>
					</g>
				</g>
				<g id="45" transform="translate(2.000000, 104.000000)">
					<g id="45C" transform="translate(0.000000, 77.000000)">
						<polygon id="69" points="846.9 41.8 885 42 885.4 4 847.3 3.8"></polygon>
						<polygon id="66" points="808.4 41.6 846.9 41.8 847.3 3.8 808.9 3.6"></polygon>
						<polygon id="63" points="768.9 41.3 808.4 41.6 808.9 3.6 769.3 3.5"></polygon>
						<polygon id="60" points="730.3 41.1 768.9 41.3 769.3 3.5 730.6 3.3"></polygon>
						<polygon id="57" points="692.2 40.9 730.3 41.1 730.6 3.3 692.4 3.1"></polygon>
						<polygon id="54" points="692.2 40.9 692.4 3.1 653.5 2.9 653.4 40.7"></polygon>
						<polygon id="52" points="653.4 40.7 653.5 2.9 613.3 2.8 613.1 40.5"></polygon>
						<polygon id="49" points="613.1 40.5 613.3 2.8 576.6 2.6 576.5 40.3"></polygon>
						<polygon id="46" points="576.5 40.3 576.6 2.6 538.8 2.4 538.6 40"></polygon>
						<polygon id="43" points="538.6 40 538.8 2.4 500.6 2.3 500.3 39.8"></polygon>
						<polygon id="40" points="500.3 39.8 500.6 2.3 459.9 2.1 459.7 39.6"></polygon>
						<polygon id="37" points="459.7 39.6 459.9 2.1 421 1.9 420.8 39.4"></polygon>
						<polygon id="34" points="420.8 39.4 421 1.9 384.1 1.7 384 39.2"></polygon>
						<polygon id="31" points="384 39.2 384.1 1.7 347 1.6 346.8 39"></polygon>
						<polygon id="28" points="346.8 39 347 1.6 307.7 1.4 307.5 38.7"></polygon>
						<polygon id="25" points="307.5 38.7 307.7 1.4 268.6 1.2 268.3 38.5"></polygon>
						<polygon id="22" points="268.3 38.5 268.6 1.2 232.2 1 231.8 38.3"></polygon>
						<polygon id="18" points="232.2 1 194 0.9 193.6 38.1 231.8 38.3"></polygon>
						<polygon id="15" points="194 0.9 155.7 0.7 155.5 37.9 193.6 38.1"></polygon>
						<polygon id="12" points="155.7 0.7 117.4 0.5 117.1 37.7 155.5 37.9"></polygon>
						<polygon id="9" points="117.4 0.5 76.8 0.3 76.5 37.4 117.1 37.7"></polygon>
						<polygon id="6" points="76.8 0.3 40.4 0.2 40.1 37.2 76.5 37.4"></polygon>
						<polygon id="3" points="40.4 0.2 0.4 0 0.1 37 40.1 37.2"></polygon>
					</g>
					<g id="45B" transform="translate(0.000000, 39.000000)">
						<polygon id="69" points="847.3 41.8 885.4 42 885.7 4 847.6 3.8"></polygon>
						<polygon id="66" points="808.9 41.6 847.3 41.8 847.6 3.8 809.3 3.7"></polygon>
						<polygon id="62" points="769.3 41.5 808.9 41.6 809.3 3.7 769.6 3.5"></polygon>
						<polygon id="60" points="730.6 41.3 769.3 41.5 769.6 3.5 730.9 3.3"></polygon>
						<polygon id="56" points="730.6 41.3 730.9 3.3 692.5 3.1 692.4 41.1"></polygon>
						<polygon id="53" points="692.4 41.1 692.5 3.1 653.6 3 653.5 40.9"></polygon>
						<polygon id="50" points="653.5 40.9 653.6 3 613.4 2.8 613.3 40.8"></polygon>
						<polygon id="47" points="613.3 40.8 613.4 2.8 576.7 2.6 576.6 40.6"></polygon>
						<polygon id="44" points="576.6 40.6 576.7 2.6 539.1 2.4 538.8 40.4"></polygon>
						<polygon id="41" points="538.8 40.4 539.1 2.4 500.9 2.3 500.6 40.3"></polygon>
						<polygon id="39" points="500.6 40.3 500.9 2.3 460.2 2.1 459.9 40.1"></polygon>
						<polygon id="36" points="459.9 40.1 460.2 2.1 421.2 1.9 421 39.9"></polygon>
						<polygon id="33" points="421 39.9 421.2 1.9 384.3 1.7 384.1 39.7"></polygon>
						<polygon id="30" points="384.1 39.7 384.3 1.7 347.2 1.6 347 39.6"></polygon>
						<polygon id="27" points="347 39.6 347.2 1.6 308 1.4 307.7 39.4"></polygon>
						<polygon id="24" points="307.7 39.4 308 1.4 268.9 1.2 268.6 39.2"></polygon>
						<polygon id="21" points="268.6 39.2 268.9 1.2 232.6 1.1 232.2 39"></polygon>
						<polygon id="18" points="232.2 39 232.6 1.1 194.4 0.9 194 38.9"></polygon>
						<polygon id="15" points="194.4 0.9 156 0.7 155.7 38.7 194 38.9"></polygon>
						<polygon id="12" points="156 0.7 117.7 0.5 117.4 38.5 155.7 38.7"></polygon>
						<polygon id="9" points="117.7 0.5 77.1 0.4 76.8 38.3 117.4 38.5"></polygon>
						<polygon id="6" points="77.1 0.4 40.7 0.2 40.4 38.2 76.8 38.3"></polygon>
						<polygon id="3" points="40.7 0.2 0.7 0 0.4 38 40.4 38.2"></polygon>
					</g>
					<g id="45A">
						<polygon id="70" points="847.6 42.8 885.7 43 886.1 4 848 3.8"></polygon>
						<polygon id="67" points="809.3 42.7 847.6 42.8 848 3.8 809.8 3.7"></polygon>
						<polygon id="64" points="769.6 42.5 809.3 42.7 809.8 3.7 770 3.5"></polygon>
						<polygon id="61" points="769.6 42.5 770 3.5 731.2 3.3 730.9 42.3"></polygon>
						<polygon id="58" points="730.9 42.3 731.2 3.3 692.6 3.1 692.5 42.1"></polygon>
						<polygon id="54" points="692.5 42.1 692.6 3.1 653.7 3 653.6 42"></polygon>
						<polygon id="51" points="653.6 42 653.7 3 613.6 2.8 613.4 41.8"></polygon>
						<polygon id="48" points="613.4 41.8 613.6 2.8 576.8 2.6 576.7 41.6"></polygon>
						<polygon id="46" points="576.7 41.6 576.8 2.6 539.3 2.4 539.1 41.4"></polygon>
						<polygon id="43" points="539.1 41.4 539.3 2.4 501.2 2.3 500.9 41.3"></polygon>
						<polygon id="40" points="500.9 41.3 501.2 2.3 460.4 2.1 460.2 41.1"></polygon>
						<polygon id="37" points="460.2 41.1 460.4 2.1 421.5 1.9 421.2 40.9"></polygon>
						<polygon id="34" points="421.2 40.9 421.5 1.9 384.5 1.7 384.3 40.7"></polygon>
						<polygon id="30" points="384.3 40.7 384.5 1.7 347.5 1.6 347.2 40.6"></polygon>
						<polygon id="27" points="347.2 40.6 347.5 1.6 308.3 1.4 308 40.4"></polygon>
						<polygon id="24" points="308 40.4 308.3 1.4 269.2 1.2 268.9 40.2"></polygon>
						<polygon id="21" points="268.9 40.2 269.2 1.2 233 1 232.6 40.1"></polygon>
						<polygon id="18" points="232.6 40.1 233 1 194.8 0.9 194.4 39.9"></polygon>
						<polygon id="15" points="194.4 39.9 194.8 0.9 156.3 0.7 156 39.7"></polygon>
						<polygon id="12" points="156.3 0.7 118.1 0.5 117.7 39.5 156 39.7"></polygon>
						<polygon id="9" points="118.1 0.5 77.3 0.3 77.1 39.4 117.7 39.5"></polygon>
						<polygon id="6" points="77.3 0.3 41.1 0.2 40.7 39.2 77.1 39.4"></polygon>
						<polygon id="3" points="41.1 0.2 1.1 0 0.7 39 40.7 39.2"></polygon>
					</g>
				</g>
				<g id="46" transform="translate(3.000000, 0.000000)">
					<g id="46C" transform="translate(0.000000, 67.000000)">
						<polygon id="69" points="847 40.8 885.1 41 885.4 5 847.4 4.8"></polygon>
						<polygon id="66" points="808.8 40.7 847 40.8 847.4 4.8 809.2 4.6"></polygon>
						<polygon id="63" points="808.8 40.7 809.2 4.6 769.4 4.3 769 40.5"></polygon>
						<polygon id="60" points="769 40.5 769.4 4.3 730.5 4.1 730.2 40.3"></polygon>
						<polygon id="57" points="730.2 40.3 730.5 4.1 691.8 3.9 691.6 40.1"></polygon>
						<polygon id="54" points="691.6 40.1 691.8 3.9 652.8 3.7 652.7 40"></polygon>
						<polygon id="51" points="652.7 40 652.8 3.7 612.7 3.5 612.6 39.8"></polygon>
						<polygon id="48" points="612.6 39.8 612.7 3.5 575.8 3.3 575.8 39.6"></polygon>
						<polygon id="45" points="575.8 39.6 575.8 3.3 538.6 3 538.3 39.4"></polygon>
						<polygon id="42" points="538.3 39.4 538.6 3 500.5 2.8 500.2 39.3"></polygon>
						<polygon id="39" points="500.2 39.3 500.5 2.8 459.6 2.6 459.4 39.1"></polygon>
						<polygon id="36" points="459.4 39.1 459.6 2.6 420.6 2.4 420.5 38.9"></polygon>
						<polygon id="33" points="420.5 38.9 420.6 2.4 383.7 2.2 383.5 38.7"></polygon>
						<polygon id="30" points="383.5 38.7 383.7 2.2 346.7 2 346.5 38.6"></polygon>
						<polygon id="47" points="346.5 38.6 346.7 2 307.5 1.7 307.3 38.4"></polygon>
						<polygon id="24" points="307.3 38.4 307.5 1.7 268.5 1.5 268.2 38.2"></polygon>
						<polygon id="21" points="268.2 38.2 268.5 1.5 232.3 1.3 232 38"></polygon>
						<polygon id="18" points="232 38 232.3 1.3 194.2 1.1 193.8 37.9"></polygon>
						<polygon id="15" points="193.8 37.9 194.2 1.1 155.5 0.9 155.3 37.7"></polygon>
						<polygon id="12" points="155.3 37.7 155.5 0.9 117.4 0.7 117.1 37.5"></polygon>
						<polygon id="9" points="117.4 0.7 76.6 0.4 76.3 37.3 117.1 37.5"></polygon>
						<polygon id="6" points="76.6 0.4 40.4 0.2 40.1 37.2 76.3 37.3"></polygon>
						<polygon id="3" points="40.4 0.2 0.4 0 0.1 37 40.1 37.2"></polygon>
					</g>
					<g id="46B" transform="translate(0.000000, 28.000000)">
						<polygon id="70" points="847.4 43.8 885.4 44 885.7 5 847.7 4.8"></polygon>
						<polygon id="67" points="847.4 43.8 847.7 4.8 809.7 4.6 809.2 43.6"></polygon>
						<polygon id="64" points="809.2 43.6 809.7 4.6 769.7 4.4 769.4 43.3"></polygon>
						<polygon id="61" points="769.4 43.3 769.7 4.4 730.8 4.1 730.5 43.1"></polygon>
						<polygon id="57" points="730.5 43.1 730.8 4.1 691.9 3.9 691.8 42.9"></polygon>
						<polygon id="54" points="691.8 42.9 691.9 3.9 652.9 3.7 652.8 42.7"></polygon>
						<polygon id="51" points="652.8 42.7 652.9 3.7 612.9 3.5 612.7 42.5"></polygon>
						<polygon id="48" points="612.7 42.5 612.9 3.5 575.9 3.3 575.8 42.3"></polygon>
						<polygon id="46" points="575.8 42.3 575.9 3.3 538.8 3 538.6 42"></polygon>
						<polygon id="43" points="538.6 42 538.8 3 500.8 2.8 500.5 41.8"></polygon>
						<polygon id="40" points="500.5 41.8 500.8 2.8 459.8 2.6 459.6 41.6"></polygon>
						<polygon id="37" points="459.6 41.6 459.8 2.6 420.9 2.4 420.6 41.4"></polygon>
						<polygon id="34" points="420.6 41.4 420.9 2.4 383.9 2.2 383.7 41.2"></polygon>
						<polygon id="31" points="383.7 41.2 383.9 2.2 346.9 2 346.7 41"></polygon>
						<polygon id="28" points="346.7 41 346.9 2 307.8 1.7 307.5 40.7"></polygon>
						<polygon id="25" points="307.5 40.7 307.8 1.7 268.8 1.5 268.5 40.5"></polygon>
						<polygon id="22" points="268.5 40.5 268.8 1.5 232.7 1.3 232.3 40.3"></polygon>
						<polygon id="19" points="232.3 40.3 232.7 1.3 194.7 1.1 194.2 40.1"></polygon>
						<polygon id="16" points="194.2 40.1 194.7 1.1 155.8 0.9 155.5 39.9"></polygon>
						<polygon id="13" points="155.5 39.9 155.8 0.9 117.8 0.7 117.4 39.7"></polygon>
						<polygon id="10" points="117.4 39.7 117.8 0.7 76.8 0.4 76.6 39.4"></polygon>
						<polygon id="6" points="76.8 0.4 40.8 0.2 40.4 39.2 76.6 39.4"></polygon>
						<polygon id="3" points="40.8 0.2 0.8 0 0.4 39 40.4 39.2"></polygon>
					</g>
					<g id="46A">
						<polygon id="64" points="885.7 33 886 5 848 4.8 847.7 32.8"></polygon>
						<polygon id="61" points="847.7 32.8 848 4.8 810 4.6 809.7 32.6"></polygon>
						<polygon id="58" points="809.7 32.6 810 4.6 770 4.3 769.7 32.4"></polygon>
						<polygon id="56" points="769.7 32.4 770 4.3 731 4.1 730.8 32.1"></polygon>
						<polygon id="52" points="730.8 32.1 731 4.1 692 3.9 691.9 31.9"></polygon>
						<polygon id="50" points="691.9 31.9 692 3.9 653 3.7 652.9 31.7"></polygon>
						<polygon id="47" points="652.9 31.7 653 3.7 613 3.5 612.9 31.5"></polygon>
						<polygon id="45" points="612.9 31.5 613 3.5 576 3.2 575.9 31.3"></polygon>
						<polygon id="42" points="575.9 31.3 576 3.2 539 3 538.8 31"></polygon>
						<polygon id="39" points="538.8 31 539 3 501 2.8 500.8 30.8"></polygon>
						<polygon id="36" points="500.8 30.8 501 2.8 460 2.6 459.8 30.6"></polygon>
						<polygon id="33" points="459.8 30.6 460 2.6 421 2.4 420.9 30.4"></polygon>
						<polygon id="30" points="420.9 30.4 421 2.4 384 2.2 383.9 30.2"></polygon>
						<polygon id="27" points="383.9 30.2 384 2.2 347 2 346.9 30"></polygon>
						<polygon id="25" points="346.9 30 347 2 308 1.7 307.8 29.7"></polygon>
						<polygon id="22" points="307.8 29.7 308 1.7 269 1.5 268.8 29.5"></polygon>
						<polygon id="19" points="268.8 29.5 269 1.5 233 1.3 232.7 29.3"></polygon>
						<polygon id="16" points="232.7 29.3 233 1.3 195 1.1 194.7 29.1"></polygon>
						<polygon id="13" points="194.7 29.1 195 1.1 156 0.9 155.8 28.9"></polygon>
						<polygon id="11" points="155.8 28.9 156 0.9 118 0.7 117.8 28.7"></polygon>
						<polygon id="8" points="117.8 28.7 118 0.7 77 0.4 76.8 28.4"></polygon>
						<polygon id="5" points="76.8 28.4 77 0.4 41 0.2 40.8 28.2"></polygon>
						<polygon id="2" points="41 0.2 1 0 0.8 28 40.8 28.2"></polygon>
					</g>
				</g>
			</g>
		</g>
	</g>
</svg>